<svg width="168" height="108" viewBox="0 0 168 108" fill="none" xmlns="http://www.w3.org/2000/svg">
<path d="M0 4C0 1.79086 1.79086 0 4 0H164C166.209 0 168 1.79086 168 4V104C168 106.209 166.209 108 164 108H4C1.79087 108 0 106.209 0 104V4Z" fill="#919191"/>
<path d="M84.2306 62.8194C84.7206 62.8194 85.19 62.788 85.6363 62.7271C88.8094 62.2941 90.8191 60.3668 90.8191 57.5822C90.8191 55.3031 89.6911 53.7271 87.2044 52.8057L84.2306 51.6904C82.4617 51.0115 81.7695 50.4296 81.7695 49.484C81.7695 48.4657 82.5643 47.811 83.923 47.811C85.5381 47.811 86.4097 48.6839 86.4097 50.2599H90.5627C90.5627 47.4635 88.6542 45.5165 85.6363 45.0086C85.1218 44.922 84.575 44.8773 83.9999 44.8773C83.6553 44.8773 83.3218 44.8928 83.0001 44.9232C79.6829 45.2366 77.6165 47.1291 77.6165 49.8477C77.6165 52.0541 78.847 53.6301 81.2568 54.4787L84.487 55.6668C86.1021 56.2729 86.666 56.8063 86.666 57.8489C86.666 59.037 85.7944 59.7159 84.2562 59.7159C82.4361 59.7159 81.3337 58.6248 81.3337 56.7821H77.1807C77.1807 60.2201 79.3345 62.3725 83.0001 62.7572C83.3931 62.7985 83.8036 62.8194 84.2306 62.8194Z" fill="white" fill-opacity="0.7"/>
<path d="M83.9999 44.8773C84.575 44.8773 85.1218 44.922 85.6363 45.0086V42.6345H83.0001V44.9232C83.3218 44.8928 83.6553 44.8773 83.9999 44.8773Z" fill="white" fill-opacity="0.7"/>
<path d="M85.6363 62.7271C85.19 62.788 84.7206 62.8194 84.2306 62.8194C83.8036 62.8194 83.3931 62.7985 83.0001 62.7572V65.0926H85.6363V62.7271Z" fill="white" fill-opacity="0.7"/>
<path d="M91.3334 71.3333H70V36.6666H98L98.0001 75.3333H102V32.6666H66V75.3333H94.0001L91.3334 71.3333Z" fill="white" fill-opacity="0.7"/>
<path d="M4 1H164V-1H4V1ZM167 4V104H169V4H167ZM164 107H4V109H164V107ZM1 104V4H-1V104H1ZM4 107C2.34315 107 1 105.657 1 104H-1C-1 106.761 1.23858 109 4 109V107ZM167 104C167 105.657 165.657 107 164 107V109C166.761 109 169 106.761 169 104H167ZM164 1C165.657 1 167 2.34315 167 4H169C169 1.23857 166.761 -1 164 -1V1ZM4 -1C1.23858 -1 -1 1.23857 -1 4H1C1 2.34314 2.34315 1 4 1V-1Z" fill="black" fill-opacity="0.1"/>
</svg>
