<svg width="112" height="72" viewBox="0 0 112 72" fill="none" xmlns="http://www.w3.org/2000/svg">
<path d="M0 4C0 1.79086 1.79086 0 4 0H108C110.209 0 112 1.79086 112 4V68C112 70.2091 110.209 72 108 72H4C1.79086 72 0 70.2091 0 68V4Z" fill="#919191"/>
<path d="M56.1441 41.5121C56.4504 41.5121 56.7437 41.4925 57.0227 41.4544C59.0059 41.1838 60.2619 39.9792 60.2619 38.2389C60.2619 36.8144 59.5569 35.8294 58.0028 35.2536L56.1441 34.5565C55.0386 34.1322 54.606 33.7685 54.606 33.1775C54.606 32.541 55.1027 32.1319 55.9519 32.1319C56.9613 32.1319 57.5061 32.6774 57.5061 33.6624H60.1017C60.1017 31.9147 58.9089 30.6978 57.0227 30.3804C56.7011 30.3262 56.3594 30.2983 55.9999 30.2983C55.7846 30.2983 55.5761 30.308 55.375 30.327C53.3018 30.5229 52.0103 31.7057 52.0103 33.4048C52.0103 34.7838 52.7794 35.7688 54.2855 36.2992L56.3044 37.0417C57.3138 37.4206 57.6663 37.754 57.6663 38.4056C57.6663 39.1481 57.1215 39.5724 56.1602 39.5724C55.0225 39.5724 54.3336 38.8905 54.3336 37.7388H51.7379C51.7379 39.8875 53.0841 41.2328 55.375 41.4732C55.6207 41.499 55.8772 41.5121 56.1441 41.5121Z" fill="white" fill-opacity="0.7"/>
<path d="M55.9999 30.2983C56.3594 30.2983 56.7011 30.3262 57.0227 30.3804V28.8965H55.375V30.327C55.5761 30.308 55.7846 30.2983 55.9999 30.2983Z" fill="white" fill-opacity="0.7"/>
<path d="M57.0227 41.4544C56.7437 41.4925 56.4504 41.5121 56.1441 41.5121C55.8772 41.5121 55.6207 41.499 55.375 41.4732V42.9328H57.0227V41.4544Z" fill="white" fill-opacity="0.7"/>
<path d="M60.5834 46.8333H47.25V25.1666H64.75L64.7501 49.3333H67.25V22.6666H44.75V49.3333H62.2501L60.5834 46.8333Z" fill="white" fill-opacity="0.7"/>
<path d="M4 1H108V-1H4V1ZM111 4V68H113V4H111ZM108 71H4V73H108V71ZM1 68V4H-1V68H1ZM4 71C2.34314 71 1 69.6569 1 68H-1C-1 70.7614 1.23857 73 4 73V71ZM111 68C111 69.6569 109.657 71 108 71V73C110.761 73 113 70.7614 113 68H111ZM108 1C109.657 1 111 2.34315 111 4H113C113 1.23858 110.761 -1 108 -1V1ZM4 -1C1.23858 -1 -1 1.23858 -1 4H1C1 2.34315 2.34315 1 4 1V-1Z" fill="black" fill-opacity="0.1"/>
</svg>
