<svg width="56" height="36" viewBox="0 0 56 36" fill="none" xmlns="http://www.w3.org/2000/svg">
<path d="M0 4C0 1.79086 1.79086 0 4 0H52C54.2091 0 56 1.79086 56 4V32C56 34.2091 54.2091 36 52 36H4C1.79086 36 0 34.2091 0 32V4Z" fill="#919191"/>
<path d="M22.5 24.5H31L32 26H21V10H35V26H33.5V11.5H22.5V24.5Z" fill="white" fill-opacity="0.7"/>
<path d="M28.7274 13.5H27.6701V14.3558C26.5756 14.473 25.8938 15.1807 25.8938 16.1973C25.8938 17.0224 26.2998 17.6117 27.0949 17.9291L28.1607 18.3733C28.6936 18.6 28.8797 18.7995 28.8797 19.1893C28.8797 19.6336 28.5921 19.8875 28.0846 19.8875C27.484 19.8875 27.1203 19.4795 27.1203 18.7904H25.75C25.75 20.076 26.4607 20.8809 27.6701 21.0248V22H28.7274V20.9776C29.6654 20.7623 30.25 20.0673 30.25 19.0896C30.25 18.2373 29.8778 17.648 29.0573 17.3035L28.0761 16.8864C27.4925 16.6325 27.2641 16.4149 27.2641 16.0613C27.2641 15.6805 27.5263 15.4357 27.9746 15.4357C28.5075 15.4357 28.7951 15.7621 28.7951 16.3515H30.1654C30.1654 15.373 29.6141 14.6727 28.7274 14.431V13.5Z" fill="white" fill-opacity="0.7"/>
<path d="M4 1H52V-1H4V1ZM55 4V32H57V4H55ZM52 35H4V37H52V35ZM1 32V4H-1V32H1ZM4 35C2.34315 35 1 33.6569 1 32H-1C-1 34.7614 1.23858 37 4 37V35ZM55 32C55 33.6569 53.6569 35 52 35V37C54.7614 37 57 34.7614 57 32H55ZM52 1C53.6569 1 55 2.34315 55 4H57C57 1.23858 54.7614 -1 52 -1V1ZM4 -1C1.23858 -1 -1 1.23858 -1 4H1C1 2.34315 2.34315 1 4 1V-1Z" fill="black" fill-opacity="0.1"/>
</svg>
