<svg width="168" height="108" viewBox="0 0 168 108" fill="none" xmlns="http://www.w3.org/2000/svg">
<path d="M0 4C0 1.79086 1.79086 0 4 0H164C166.209 0 168 1.79086 168 4V104C168 106.209 166.209 108 164 108H4C1.79087 108 0 106.209 0 104V4Z" fill="#E6EFF7"/>
<rect y="12" width="168" height="72" fill="url(#paint0_linear)"/>
<path d="M0 4C0 1.79086 1.79086 0 4 0H164C166.209 0 168 1.79086 168 4V12H0V4Z" fill="#06318F"/>
<path d="M33.7815 53H12V57H35.6975L33.7815 53Z" fill="#191919" fill-opacity="0.3"/>
<path d="M69.479 35H12V39H72L69.479 35Z" fill="#191919" fill-opacity="0.3"/>
<path d="M69.479 44H12V48H72L69.479 44Z" fill="#191919" fill-opacity="0.3"/>
<defs>
<linearGradient id="paint0_linear" x1="0" y1="12" x2="0" y2="84" gradientUnits="userSpaceOnUse">
<stop stop-color="#A0D7B2"/>
<stop offset="0.500726" stop-color="#B1E8E8"/>
<stop offset="1" stop-color="#7EB3DC"/>
</linearGradient>
</defs>
</svg>
