<svg width="112" height="72" viewBox="0 0 112 72" fill="none" xmlns="http://www.w3.org/2000/svg">
<path d="M0 4C0 1.79086 1.79086 0 4 0H108C110.209 0 112 1.79086 112 4V68C112 70.2091 110.209 72 108 72H4C1.79086 72 0 70.2091 0 68V4Z" fill="#E6EFF7"/>
<rect y="8" width="112" height="48" fill="url(#paint0_linear)"/>
<path d="M0 4C0 1.79086 1.79086 0 4 0H108C110.209 0 112 1.79086 112 4V8H0V4Z" fill="#06318F"/>
<path d="M22.4 34H8V37H24L22.4 34Z" fill="#191919" fill-opacity="0.3"/>
<path d="M46 22H8V25H48L46 22Z" fill="#191919" fill-opacity="0.3"/>
<path d="M46 28H8V31H48L46 28Z" fill="#191919" fill-opacity="0.3"/>
<defs>
<linearGradient id="paint0_linear" x1="0" y1="8" x2="0" y2="56" gradientUnits="userSpaceOnUse">
<stop stop-color="#A0D7B2"/>
<stop offset="0.500726" stop-color="#B1E8E8"/>
<stop offset="1" stop-color="#7EB3DC"/>
</linearGradient>
</defs>
</svg>
