<svg width="56" height="36" viewBox="0 0 56 36" fill="none" xmlns="http://www.w3.org/2000/svg">
<path d="M0 4C0 1.79086 1.79086 0 4 0H52C54.2091 0 56 1.79086 56 4V32C56 34.2091 54.2091 36 52 36H4C1.79086 36 0 34.2091 0 32V4Z" fill="#E6EFF7"/>
<rect y="4" width="56" height="24" fill="url(#paint0_linear)"/>
<path d="M0 4C0 1.79086 1.79086 0 4 0H52C54.2091 0 56 1.79086 56 4H0Z" fill="#06318F"/>
<path d="M13 17H4V18.5H14L13 17Z" fill="#191919" fill-opacity="0.3"/>
<path d="M23 11H4V12.5H24L23 11Z" fill="#191919" fill-opacity="0.3"/>
<path d="M23 14H4V15.5H24L23 14Z" fill="#191919" fill-opacity="0.3"/>
<defs>
<linearGradient id="paint0_linear" x1="0" y1="4" x2="0" y2="28" gradientUnits="userSpaceOnUse">
<stop stop-color="#A0D7B2"/>
<stop offset="0.500726" stop-color="#B1E8E8"/>
<stop offset="1" stop-color="#7EB3DC"/>
</linearGradient>
</defs>
</svg>
