<svg width="168" height="108" viewBox="0 0 168 108" fill="none" xmlns="http://www.w3.org/2000/svg">
<path d="M0 4C0 1.79086 1.79086 0 4 0H164C166.209 0 168 1.79086 168 4V104C168 106.209 166.209 108 164 108H4C1.79087 108 0 106.209 0 104V4Z" fill="#FFEED1"/>
<path fill-rule="evenodd" clip-rule="evenodd" d="M102.515 88.291C102.279 88.2073 102.019 88.2247 101.797 88.339C101.574 88.4534 101.409 88.6545 101.34 88.8946C100.956 89.4562 100.526 89.9855 100.055 90.4771C99.6533 90.9797 99.1503 91.3932 98.5788 91.691C98.4045 91.6186 97.846 90.9771 97.9867 85.7029C98.123 80.676 99.5093 78.2739 99.5383 78.2171C99.8682 77.6595 99.8015 76.9538 99.373 76.4675C99.1833 76.2649 98.9058 76.1683 98.6308 76.2093C98.3559 76.2502 98.1188 76.4234 97.9968 76.6724C97.9242 76.7949 96.1894 79.6626 96.0296 85.6183C95.9179 89.7555 96.0084 93.8258 98.3755 94.1844C98.4431 94.1951 98.5114 94.2003 98.5799 94.2C99.0792 94.2 99.8902 93.9172 101.335 92.3748C102.068 91.6442 102.677 90.7994 103.137 89.8735C103.329 89.2658 103.07 88.6072 102.515 88.291ZM155.026 85.2378C154.708 85.2555 154.019 84.4779 153.354 81.5008C153.033 80.001 152.796 78.4828 152.643 76.954L152.468 75L151.229 76.0487C148.427 78.4181 140.597 84.7268 138.036 85.4499C137.652 85.6317 137.201 85.5523 136.894 85.2489C136.475 84.3144 136.331 83.2704 136.479 82.2495L136.82 79.2035L134.999 81.072C134.233 81.8563 132.102 83.9991 131.43 84.4857C130.512 85.1522 130.081 85.0545 129.907 84.9356C129.449 84.3676 129.205 83.6439 129.22 82.9005C128.872 79.8401 128.131 77.9738 126.924 77.1929C125.938 76.5519 124.773 76.7396 123.461 77.7483C121.132 79.8541 119.393 82.5857 118.432 85.6499C117.728 83.6814 115.106 84.3246 110.943 85.5266C110.496 85.6555 110.057 85.7821 109.646 85.8954C108.984 86.0955 108.28 86.0835 107.625 85.861C107.512 85.6399 107.323 85.4723 107.096 85.3922C107.081 85.3874 107.065 85.3837 107.049 85.3811C107.436 84.9217 107.516 84.2615 107.253 83.7148C107.16 83.4549 106.953 83.2583 106.698 83.1875C106.442 83.1166 106.17 83.1802 105.967 83.3582L105.591 83.6914C105.577 83.2643 105.354 82.8749 105.002 82.6606C104.752 82.5556 104.47 82.576 104.237 82.716C104.003 82.8561 103.843 83.1003 103.803 83.3793C103.598 84.1263 103.439 84.8862 103.326 85.6543C103.049 87.5984 103.227 88.9325 103.874 89.7335C104.165 90.1347 104.612 90.3771 105.093 90.3933C105.277 90.3918 105.46 90.3541 105.632 90.2822C106.395 89.8615 106.992 89.1714 107.317 88.3338C108.2 88.6026 109.137 88.6061 110.021 88.3438C110.439 88.2327 110.882 88.1016 111.336 87.9705C112.918 87.5128 115.753 86.6963 116.706 86.9007C116.744 87.9702 116.836 89.0367 116.983 90.0956C117.419 93.0949 118.286 94.739 119.56 94.9834L121.778 95.4L120.433 92.9927C119.684 91.5888 119.436 89.9513 119.731 88.3726C120.346 85.0911 121.983 82.1168 124.384 79.9167C124.833 79.4318 125.501 79.2478 126.119 79.439C126.701 79.8178 127.151 81.1798 127.39 83.2738C127.612 85.2544 128.182 86.5653 129.084 87.1696C129.986 87.7739 131.059 87.5984 132.32 86.6808C133.145 86.0032 133.934 85.2785 134.684 84.5101C134.773 85.4352 135.099 86.3179 135.626 87.0651C136.299 87.9345 137.419 88.2667 138.426 87.895C141.179 87.1174 148.211 81.4808 151.037 79.1524C151.16 80.0233 151.339 81.1042 151.579 82.1918C152.41 85.9298 153.597 87.7961 155.091 87.7339C155.669 87.6247 156.065 87.06 155.991 86.4486C156.041 85.8353 155.61 85.2947 155.026 85.2378ZM104.577 86.9968C104.391 86.6149 104.35 86.1992 104.461 85.8C104.827 86.0085 105.207 86.201 105.6 86.3767C105.315 86.6344 104.969 86.8461 104.579 87L104.577 86.9968Z" fill="black" fill-opacity="0.3"/>
<path fill-rule="evenodd" clip-rule="evenodd" d="M22.4062 52.3333H49.5937C49.4554 51.8501 49.2742 51.3591 49.0392 50.8766C48.4236 49.6125 47.4001 48.316 45.5687 47.2904C43.6942 46.2407 40.7152 45.3333 35.9999 45.3333C31.2846 45.3333 28.3056 46.2407 26.4311 47.2904C24.5998 48.316 23.5763 49.6125 22.9606 50.8766C22.7257 51.3591 22.5445 51.8501 22.4062 52.3333ZM54.3858 52.3333C54.4615 52.7279 54.5184 53.1091 54.5605 53.4719C54.7992 55.5299 54.5605 57 54.5605 57H17.4393C17.4393 57 17.2007 55.5299 17.4393 53.4719C17.4814 53.109 17.5383 52.7279 17.614 52.3333C18.5398 47.5061 22.2735 40.6666 35.9999 40.6666C49.7263 40.6666 53.46 47.5061 54.3858 52.3333Z" fill="#191919" fill-opacity="0.3"/>
<path d="M35.9999 17.3333C32.1339 17.3333 28.9999 20.4673 28.9999 24.3333C28.9999 28.1993 32.1339 31.3333 35.9999 31.3333C36.9823 31.3333 37.9174 31.1309 38.7658 30.7656L42.2111 34.2109C40.4126 35.3443 38.2828 36 35.9999 36C29.5566 36 24.3333 30.7766 24.3333 24.3333C24.3333 17.89 29.5566 12.6666 35.9999 12.6666C42.4432 12.6666 47.6666 17.89 47.6666 24.3333C47.6666 26.6162 47.0109 28.7459 45.8776 30.5444L42.4323 27.0991C42.7976 26.2507 42.9999 25.3156 42.9999 24.3333C42.9999 20.4673 39.8659 17.3333 35.9999 17.3333Z" fill="#191919" fill-opacity="0.3"/>
<path d="M4 1H164V-1H4V1ZM167 4V104H169V4H167ZM164 107H4V109H164V107ZM1 104V4H-1V104H1ZM4 107C2.34315 107 1 105.657 1 104H-1C-1 106.761 1.23858 109 4 109V107ZM167 104C167 105.657 165.657 107 164 107V109C166.761 109 169 106.761 169 104H167ZM164 1C165.657 1 167 2.34315 167 4H169C169 1.23857 166.761 -1 164 -1V1ZM4 -1C1.23858 -1 -1 1.23857 -1 4H1C1 2.34314 2.34315 1 4 1V-1Z" fill="black" fill-opacity="0.1"/>
</svg>
