<svg width="112" height="72" viewBox="0 0 112 72" fill="none" xmlns="http://www.w3.org/2000/svg">
<path d="M0 4C0 1.79086 1.79086 0 4 0H108C110.209 0 112 1.79086 112 4V68C112 70.2091 110.209 72 108 72H4C1.79086 72 0 70.2091 0 68V4Z" fill="#FFEED1"/>
<path fill-rule="evenodd" clip-rule="evenodd" d="M68.3435 58.8607C68.1862 58.8049 68.0128 58.8164 67.8643 58.8927C67.7159 58.9689 67.6058 59.103 67.5601 59.2631C67.304 59.6375 67.0176 59.9903 66.7037 60.3181C66.4355 60.6531 66.1002 60.9288 65.7192 61.1273C65.603 61.079 65.2306 60.6514 65.3245 57.1353C65.4153 53.784 66.3395 52.1826 66.3589 52.1447C66.5788 51.773 66.5343 51.3025 66.2486 50.9783C66.1222 50.8433 65.9372 50.7789 65.7539 50.8062C65.5706 50.8335 65.4125 50.9489 65.3312 51.1149C65.2828 51.1966 64.1263 53.1084 64.0198 57.0789C63.9453 59.837 64.0056 62.5505 65.5836 62.7896C65.6287 62.7967 65.6743 62.8002 65.7199 62.8C66.0528 62.8 66.5934 62.6114 67.5563 61.5832C68.0452 61.0961 68.4512 60.5329 68.7583 59.9157C68.8859 59.5105 68.7132 59.0715 68.3435 58.8607ZM103.35 56.8252C103.139 56.837 102.679 56.3186 102.236 54.3339C102.022 53.334 101.864 52.3219 101.762 51.3027L101.646 50L100.819 50.6991C98.9512 52.2788 93.7311 56.4845 92.0243 56.9666C91.7679 57.0878 91.4672 57.0349 91.2626 56.8326C90.9834 56.2096 90.8871 55.5136 90.9859 54.833L91.2132 52.8024L89.999 54.048C89.4887 54.5709 88.0677 55.9994 87.6202 56.3238C87.0082 56.7682 86.7209 56.703 86.6044 56.6237C86.2994 56.2451 86.1368 55.7626 86.147 55.267C85.9147 53.2267 85.4206 51.9825 84.6159 51.4619C83.9587 51.0346 83.1822 51.1597 82.3076 51.8322C80.7547 53.2361 79.5955 55.0571 78.9546 57.0999C78.4852 55.7876 76.7374 56.2164 73.9618 57.0177C73.6639 57.1036 73.3716 57.1881 73.097 57.2636C72.656 57.397 72.1869 57.389 71.7502 57.2406C71.6746 57.0933 71.5484 56.9816 71.3973 56.9281C71.3871 56.9249 71.3767 56.9225 71.3662 56.9207C71.6239 56.6145 71.6776 56.1743 71.5017 55.8098C71.4401 55.6366 71.3022 55.5056 71.1319 55.4583C70.9615 55.411 70.7799 55.4535 70.6448 55.5721L70.3942 55.7943C70.3844 55.5095 70.236 55.25 70.001 55.107C69.8345 55.0371 69.6468 55.0507 69.4911 55.144C69.3354 55.2374 69.2289 55.4002 69.2019 55.5862C69.0655 56.0842 68.9594 56.5908 68.8843 57.1029C68.6993 58.3989 68.8179 59.2883 69.2492 59.8223C69.4431 60.0898 69.7415 60.2514 70.0617 60.2622C70.1848 60.2612 70.3067 60.2361 70.421 60.1882C70.9298 59.9077 71.3278 59.4476 71.5448 58.8892C72.1333 59.0684 72.7579 59.0707 73.3476 58.8958C73.6258 58.8218 73.9215 58.7344 74.2237 58.647C75.279 58.3419 77.1687 57.7976 77.804 57.9338C77.829 58.6468 77.8907 59.3578 77.9889 60.0637C78.279 62.0633 78.8572 63.1594 79.7064 63.3223L81.1852 63.6L80.2887 61.9952C79.7895 61.0592 79.6237 59.9675 79.8207 58.9151C80.2308 56.7274 81.3218 54.7445 82.9224 53.2778C83.2218 52.9545 83.6673 52.8319 84.0794 52.9594C84.4676 53.2119 84.7676 54.1198 84.9265 55.5158C85.0747 56.8363 85.4545 57.7102 86.0559 58.113C86.6573 58.5159 87.3724 58.3989 88.2131 57.7872C88.7634 57.3354 89.2896 56.8523 89.7894 56.3401C89.849 56.9568 90.066 57.5453 90.4176 58.0434C90.8659 58.623 91.613 58.8445 92.284 58.5966C94.1194 58.0782 98.8072 54.3205 100.691 52.7683C100.773 53.3489 100.892 54.0695 101.053 54.7945C101.607 57.2866 102.398 58.5307 103.394 58.4893C103.779 58.4165 104.043 58.04 103.994 57.6324C104.027 57.2235 103.74 56.8632 103.35 56.8252ZM69.718 57.9979C69.5937 57.7433 69.5669 57.4662 69.6409 57.2C69.8846 57.339 70.138 57.4674 70.4 57.5845C70.2103 57.7563 69.979 57.8974 69.7193 58L69.718 57.9979Z" fill="black" fill-opacity="0.3"/>
<path fill-rule="evenodd" clip-rule="evenodd" d="M14.2321 31.3333H29.7678C29.6887 31.0572 29.5852 30.7766 29.4509 30.5009C29.0991 29.7785 28.5143 29.0377 27.4678 28.4516C26.3967 27.8518 24.6944 27.3333 21.9999 27.3333C19.3055 27.3333 17.6032 27.8518 16.532 28.4516C15.4855 29.0377 14.9007 29.7785 14.5489 30.5009C14.4146 30.7766 14.3111 31.0572 14.2321 31.3333ZM32.5062 31.3333C32.5494 31.5588 32.5819 31.7766 32.606 31.9839C32.7423 33.16 32.606 34 32.606 34H11.3939C11.3939 34 11.2575 33.1599 11.3939 31.9839C11.4179 31.7766 11.4504 31.5588 11.4937 31.3333C12.0227 28.5749 14.1563 24.6666 21.9999 24.6666C29.8436 24.6666 31.9771 28.5749 32.5062 31.3333Z" fill="#191919" fill-opacity="0.3"/>
<path d="M21.9999 11.3333C19.7908 11.3333 17.9999 13.1242 17.9999 15.3333C17.9999 17.5424 19.7908 19.3333 21.9999 19.3333C22.5613 19.3333 23.0956 19.2177 23.5804 19.0089L25.5492 20.9777C24.5214 21.6253 23.3044 22 21.9999 22C18.318 22 15.3333 19.0152 15.3333 15.3333C15.3333 11.6514 18.318 8.66663 21.9999 8.66663C25.6818 8.66663 28.6666 11.6514 28.6666 15.3333C28.6666 16.6378 28.2919 17.8548 27.6443 18.8825L25.6756 16.9138C25.8843 16.429 25.9999 15.8946 25.9999 15.3333C25.9999 13.1242 24.2091 11.3333 21.9999 11.3333Z" fill="#191919" fill-opacity="0.3"/>
<path d="M4 1H108V-1H4V1ZM111 4V68H113V4H111ZM108 71H4V73H108V71ZM1 68V4H-1V68H1ZM4 71C2.34314 71 1 69.6569 1 68H-1C-1 70.7614 1.23857 73 4 73V71ZM111 68C111 69.6569 109.657 71 108 71V73C110.761 73 113 70.7614 113 68H111ZM108 1C109.657 1 111 2.34315 111 4H113C113 1.23858 110.761 -1 108 -1V1ZM4 -1C1.23858 -1 -1 1.23858 -1 4H1C1 2.34315 2.34315 1 4 1V-1Z" fill="black" fill-opacity="0.1"/>
</svg>
