<svg width="56" height="36" viewBox="0 0 56 36" fill="none" xmlns="http://www.w3.org/2000/svg">
<path d="M0 4C0 1.79086 1.79086 0 4 0H52C54.2091 0 56 1.79086 56 4V32C56 34.2091 54.2091 36 52 36H4C1.79086 36 0 34.2091 0 32V4Z" fill="#FFEED1"/>
<path fill-rule="evenodd" clip-rule="evenodd" d="M6.7072 16.1998H15.2926C15.2503 16.059 15.1928 15.9145 15.1155 15.7719C14.788 15.168 13.8815 14.1998 10.9999 14.1998C8.11829 14.1998 7.21182 15.168 6.88429 15.7719C6.80697 15.9145 6.74946 16.059 6.7072 16.1998ZM16.5274 16.1998C16.5444 16.2859 16.5577 16.3693 16.5681 16.4494C16.6397 17.0038 16.5681 17.3998 16.5681 17.3998H5.43172C5.43172 17.3998 5.36013 17.0038 5.43172 16.4494C5.44207 16.3693 5.45541 16.2859 5.47238 16.1998C5.72949 14.897 6.82128 12.9998 10.9999 12.9998C15.1785 12.9998 16.2703 14.897 16.5274 16.1998Z" fill="#191919" fill-opacity="0.3"/>
<path d="M8.9999 8.60002C8.9999 9.70459 9.89533 10.6 10.9999 10.6C11.3338 10.6 11.6485 10.5182 11.9252 10.3736L12.7987 11.247C12.2861 11.596 11.6668 11.8 10.9999 11.8C9.23259 11.8 7.7999 10.3673 7.7999 8.60002C7.7999 6.83271 9.23259 5.40002 10.9999 5.40002C12.7672 5.40002 14.1999 6.83271 14.1999 8.60002C14.1999 9.26677 13.996 9.88589 13.6471 10.3984L12.7736 9.52494C12.9182 9.24834 12.9999 8.93373 12.9999 8.60002C12.9999 7.49546 12.1045 6.60002 10.9999 6.60002C9.89533 6.60002 8.9999 7.49545 8.9999 8.60002Z" fill="#191919" fill-opacity="0.3"/>
<path fill-rule="evenodd" clip-rule="evenodd" d="M34.1717 29.4303C34.0931 29.4024 34.0064 29.4082 33.9322 29.4463C33.858 29.4845 33.8029 29.5515 33.78 29.6315C33.652 29.8187 33.5088 29.9952 33.3518 30.159C33.2178 30.3266 33.0501 30.4644 32.8596 30.5637C32.8015 30.5395 32.6153 30.3257 32.6622 28.5676C32.7077 26.892 33.1698 26.0913 33.1794 26.0723C33.2894 25.8865 33.2672 25.6513 33.1243 25.4892C33.0611 25.4216 32.9686 25.3894 32.8769 25.4031C32.7853 25.4167 32.7063 25.4745 32.6656 25.5575C32.6414 25.5983 32.0631 26.5542 32.0099 28.5394C31.9726 29.9185 32.0028 31.2753 32.7918 31.3948C32.8144 31.3983 32.8371 31.4001 32.86 31.4C33.0264 31.4 33.2967 31.3057 33.7782 30.7916C34.0226 30.5481 34.2256 30.2665 34.3791 29.9578C34.4429 29.7553 34.3566 29.5357 34.1717 29.4303ZM51.6752 28.4126C51.5693 28.4185 51.3395 28.1593 51.1179 27.1669C51.0109 26.667 50.9318 26.1609 50.8811 25.6513L50.8228 25L50.4095 25.3496C49.4756 26.1394 46.8656 28.2423 46.0121 28.4833C45.884 28.5439 45.7336 28.5174 45.6313 28.4163C45.4917 28.1048 45.4436 27.7568 45.4929 27.4165L45.6066 26.4012L44.9995 27.024C44.7443 27.2854 44.0339 27.9997 43.8101 28.1619C43.5041 28.3841 43.3604 28.3515 43.3022 28.3119C43.1497 28.1225 43.0684 27.8813 43.0735 27.6335C42.9574 26.6134 42.7103 25.9913 42.3079 25.731C41.9793 25.5173 41.5911 25.5799 41.1538 25.9161C40.3773 26.618 39.7978 27.5286 39.4773 28.55C39.2426 27.8938 38.3687 28.1082 36.9809 28.5089C36.8319 28.5518 36.6858 28.594 36.5485 28.6318C36.328 28.6985 36.0935 28.6945 35.8751 28.6203C35.8373 28.5466 35.7742 28.4908 35.6986 28.4641C35.6935 28.4625 35.6883 28.4612 35.6831 28.4604C35.812 28.3072 35.8388 28.0872 35.7509 27.9049C35.7201 27.8183 35.6511 27.7528 35.5659 27.7292C35.4808 27.7055 35.39 27.7267 35.3224 27.7861L35.1971 27.8971C35.1922 27.7548 35.118 27.625 35.0005 27.5535C34.9173 27.5185 34.8234 27.5253 34.7455 27.572C34.6677 27.6187 34.6145 27.7001 34.601 27.7931C34.5328 28.0421 34.4797 28.2954 34.4421 28.5514C34.3497 29.1995 34.409 29.6442 34.6246 29.9112C34.7215 30.0449 34.8708 30.1257 35.0308 30.1311C35.0924 30.1306 35.1533 30.1181 35.2105 30.0941C35.4649 29.9538 35.6639 29.7238 35.7724 29.4446C36.0666 29.5342 36.379 29.5354 36.6738 29.4479C36.8129 29.4109 36.9608 29.3672 37.1118 29.3235C37.6395 29.1709 38.5843 28.8988 38.902 28.9669C38.9145 29.3234 38.9454 29.6789 38.9945 30.0319C39.1395 31.0316 39.4286 31.5797 39.8532 31.6611L40.5926 31.8L40.1444 30.9976C39.8948 30.5296 39.8118 29.9838 39.9104 29.4575C40.1154 28.3637 40.6609 27.3723 41.4612 26.6389C41.6109 26.4773 41.8336 26.416 42.0397 26.4797C42.2338 26.6059 42.3838 27.0599 42.4632 27.7579C42.5374 28.4181 42.7272 28.8551 43.028 29.0565C43.3287 29.258 43.6862 29.1995 44.1066 28.8936C44.3817 28.6677 44.6448 28.4262 44.8947 28.1701C44.9245 28.4784 45.033 28.7726 45.2088 29.0217C45.4329 29.3115 45.8065 29.4222 46.142 29.2983C47.0597 29.0391 49.4036 27.1603 50.3456 26.3841C50.3866 26.6745 50.4462 27.0347 50.5263 27.3973C50.8034 28.6433 51.1991 29.2654 51.6971 29.2446C51.8897 29.2082 52.0216 29.02 51.9971 28.8162C52.0136 28.6118 51.8699 28.4316 51.6752 28.4126ZM34.859 28.9989C34.7968 28.8716 34.7835 28.7331 34.8205 28.6C34.9423 28.6695 35.069 28.7337 35.2 28.7923C35.1051 28.8781 34.9895 28.9487 34.8597 29L34.859 28.9989Z" fill="black" fill-opacity="0.3"/>
<path d="M4 1H52V-1H4V1ZM55 4V32H57V4H55ZM52 35H4V37H52V35ZM1 32V4H-1V32H1ZM4 35C2.34315 35 1 33.6569 1 32H-1C-1 34.7614 1.23858 37 4 37V35ZM55 32C55 33.6569 53.6569 35 52 35V37C54.7614 37 57 34.7614 57 32H55ZM52 1C53.6569 1 55 2.34315 55 4H57C57 1.23858 54.7614 -1 52 -1V1ZM4 -1C1.23858 -1 -1 1.23858 -1 4H1C1 2.34315 2.34315 1 4 1V-1Z" fill="black" fill-opacity="0.1"/>
</svg>
