<svg width="36" height="24" fill="none" xmlns="http://www.w3.org/2000/svg"><path d="M0 2a2 2 0 012-2h32a2 2 0 012 2v20a2 2 0 01-2 2H2a2 2 0 01-2-2V2z" fill="#fff"/><path d="M23.083 11.804c.543.011 1.089-.024 1.629.018.547.102.68.93.193 1.202-.332.18-.726.067-1.086.098h-.736v-1.318zm1.943-1.493c.12.425-.29.808-.7.749h-1.243c.009-.401-.017-.837.013-1.217.498.014 1-.029 1.495.022a.595.595 0 01.435.446zm2.991-6.31c.024.812.004 1.668.01 2.497-.001 3.37.004 6.742-.002 10.113-.022 1.263-1.142 2.361-2.396 2.386-1.256.005-2.512.001-3.768.003v-5.097c1.368-.007 2.737.015 4.105-.01.635-.04 1.33-.459 1.36-1.157.074-.702-.587-1.187-1.215-1.263-.241-.007-.234-.07 0-.099.599-.13 1.07-.749.893-1.37-.15-.652-.872-.905-1.472-.904-1.223-.008-2.447 0-3.67-.003.007-.952-.017-1.904.012-2.855.097-1.24 1.245-2.263 2.482-2.241h3.661z" fill="#00A651"/><path d="M8.033 6.37c.03-1.26 1.155-2.35 2.408-2.368 1.251-.004 2.503 0 3.754-.001-.004 4.22.007 8.44-.005 12.66-.048 1.246-1.16 2.314-2.4 2.336-1.253.005-2.507.001-3.76.002v-5.268c1.217.288 2.494.41 3.736.22.743-.12 1.555-.484 1.806-1.255.185-.659.081-1.352.109-2.029v-1.57h-2.15c-.01 1.039.02 2.08-.016 3.117-.058.637-.69 1.043-1.29 1.021-.746.008-2.225-.54-2.225-.54-.003-1.947.022-4.384.033-6.324z" fill="#0B4EA2"/><path d="M14.996 9.73c-.113.024-.022-.385-.051-.54.008-.983-.016-1.966.013-2.947.097-1.246 1.253-2.272 2.495-2.242h3.658c-.004 4.22.007 8.44-.005 12.66-.049 1.247-1.16 2.314-2.4 2.337-1.254.004-2.508 0-3.761.002v-5.772c.856.702 2.02.812 3.086.813.805 0 1.604-.124 2.385-.31v-1.057c-.88.439-1.915.718-2.89.466-.68-.17-1.175-.828-1.164-1.53-.079-.73.35-1.501 1.067-1.718.891-.28 1.863-.066 2.698.297.179.093.36.21.289-.09v-.83c-1.397-.333-2.884-.455-4.287-.094-.407.115-.803.289-1.133.555z" fill="#EE1C25"/><path d="M2 1h32v-2H2v2zm33 1v20h2V2h-2zm-1 21H2v2h32v-2zM1 22V2h-2v20h2zm1 1a1 1 0 01-1-1h-2a3 3 0 003 3v-2zm33-1a1 1 0 01-1 1v2a3 3 0 003-3h-2zM34 1a1 1 0 011 1h2a3 3 0 00-3-3v2zM2-1a3 3 0 00-3 3h2a1 1 0 011-1v-2z" fill="#000" fill-opacity=".1"/></svg>