<svg width="36" height="24" fill="none" xmlns="http://www.w3.org/2000/svg"><path d="M0 2a2 2 0 012-2h32a2 2 0 012 2v20a2 2 0 01-2 2H2a2 2 0 01-2-2V2z" fill="#0069AA"/><circle cx="17" cy="12" r="7" fill="#0069AA"/><path fill-rule="evenodd" clip-rule="evenodd" d="M16.83 20h2.864c4.472 0 8.035-3.548 8.175-7.93V12c-.07-4.451-3.703-8.069-8.175-7.999H16.48c-4.262.14-7.616 3.756-7.476 8.07 0 4.312 3.494 7.86 7.826 7.929zm-6.43-8c0-3.617 3.005-6.608 6.638-6.608s6.638 2.991 6.638 6.609c0 3.617-3.005 6.608-6.638 6.608S10.401 15.618 10.401 12zm7.686 4.453V7.617c2.446.626 3.983 3.061 3.354 5.496a4.54 4.54 0 01-3.354 3.338zm-5.38-5.565a4.57 4.57 0 003.284 5.565V7.617a4.585 4.585 0 00-3.284 3.27z" fill="#fff"/></svg>