<svg width="56" height="36" fill="none" xmlns="http://www.w3.org/2000/svg"><path d="M0 4a4 4 0 014-4h48a4 4 0 014 4v28a4 4 0 01-4 4H4a4 4 0 01-4-4V4z" fill="#3290CC"/><path opacity=".44" d="M7 20.1a1.1 1.1 0 100-2.2 1.1 1.1 0 000 2.2zm3 0a1.1 1.1 0 100-2.2 1.1 1.1 0 000 2.2zm3 0a1.1 1.1 0 100-2.2 1.1 1.1 0 000 2.2zm5 0a1.1 1.1 0 100-2.2 1.1 1.1 0 000 2.2zm11 0a1.1 1.1 0 100-2.2 1.1 1.1 0 000 2.2zm-8 0a1.1 1.1 0 100-2.2 1.1 1.1 0 000 2.2zm11 0a1.1 1.1 0 100-2.2 1.1 1.1 0 000 2.2zm-8 0a1.1 1.1 0 100-2.2 1.1 1.1 0 000 2.2zm11 0a1.1 1.1 0 100-2.2 1.1 1.1 0 000 2.2z" fill="#fff"/><rect x="6" y="28" width="20" height="2" rx="1" fill="#fff" fill-opacity=".4"/><rect x="6" y="24" width="9" height="2" rx="1" fill="#fff" fill-opacity=".4"/><path d="M4 1h48v-2H4v2zm51 3v28h2V4h-2zm-3 31H4v2h48v-2zM1 32V4h-2v28h2zm3 3a3 3 0 01-3-3h-2a5 5 0 005 5v-2zm51-3a3 3 0 01-3 3v2a5 5 0 005-5h-2zM52 1a3 3 0 013 3h2a5 5 0 00-5-5v2zM4-1a5 5 0 00-5 5h2a3 3 0 013-3v-2z" fill="#000" fill-opacity=".1"/></svg>