<svg width="36" height="24" fill="none" xmlns="http://www.w3.org/2000/svg"><path d="M0 2a2 2 0 012-2h32a2 2 0 012 2v20a2 2 0 01-2 2H2a2 2 0 01-2-2V2z" fill="#000"/><path fill-rule="evenodd" clip-rule="evenodd" d="M18.18 17.358a7.106 7.106 0 01-4.596 1.672c-3.912 0-7.084-3.134-7.084-7s3.172-7 7.084-7c1.754 0 3.358.63 4.596 1.672a7.107 7.107 0 014.595-1.672c3.912 0 7.084 3.134 7.084 7s-3.172 7-7.084 7a7.106 7.106 0 01-4.595-1.672z" fill="#ED0006"/><path fill-rule="evenodd" clip-rule="evenodd" d="M18.18 17.358a6.95 6.95 0 002.489-5.328 6.951 6.951 0 00-2.49-5.328 7.107 7.107 0 014.596-1.672c3.912 0 7.084 3.134 7.084 7s-3.172 7-7.084 7a7.106 7.106 0 01-4.595-1.672z" fill="#F9A000"/><path fill-rule="evenodd" clip-rule="evenodd" d="M18.18 17.358a6.95 6.95 0 002.489-5.328 6.95 6.95 0 00-2.49-5.328 6.95 6.95 0 00-2.488 5.328 6.95 6.95 0 002.489 5.328z" fill="#FF5E00"/></svg>