<svg width="36" height="24" fill="none" xmlns="http://www.w3.org/2000/svg"><path d="M0 2a2 2 0 012-2h32a2 2 0 012 2v20a2 2 0 01-2 2H2a2 2 0 01-2-2V2z" fill="#172B85"/><path fill-rule="evenodd" clip-rule="evenodd" d="M9.849 16.93h-2.37L5.7 9.948c-.084-.321-.263-.605-.527-.739A7.566 7.566 0 003 8.47v-.269h3.82c.526 0 .922.404.987.873l.923 5.036 2.37-5.909h2.305L9.849 16.93zm4.873 0h-2.239l1.844-8.73h2.24l-1.845 8.729zm4.74-6.31c.067-.47.462-.74.923-.74a4.068 4.068 0 012.173.403l.396-1.88A5.526 5.526 0 0020.912 8c-2.173 0-3.754 1.209-3.754 2.887 0 1.277 1.12 1.947 1.91 2.35.856.403 1.185.672 1.12 1.075 0 .604-.66.872-1.317.872-.79 0-1.581-.2-2.305-.537l-.395 1.88c.79.335 1.646.47 2.436.47 2.437.067 3.951-1.141 3.951-2.954 0-2.283-3.095-2.417-3.095-3.424zm10.932 6.31L28.616 8.2h-1.91a.993.993 0 00-.922.672l-3.292 8.057h2.305l.46-1.275h2.832l.264 1.275h2.041zm-3.358-6.378l.658 3.29h-1.843l1.185-3.29z" fill="#fff"/></svg>