<svg width="56" height="36" fill="none" xmlns="http://www.w3.org/2000/svg"><path d="M0 4a4 4 0 014-4h48a4 4 0 014 4v28a4 4 0 01-4 4H4a4 4 0 01-4-4V4z" fill="#F5F7F7"/><path fill-rule="evenodd" clip-rule="evenodd" d="M28 11.003l-7.75 4.68h15.5L28 11.004zm0 1.752l2.365 1.429h-4.73L28 12.755z" fill="#0E6476"/><path d="M23.203 22.214v-5.091h1.5v5.09h-1.5zM35.079 25h-14.16v-1.5h14.16V25zm-7.702-2.786v-5.091h1.5v5.09h-1.5zm3.918 0v-5.091h1.5v5.09h-1.5z" fill="#0E6476"/><path d="M4 1h48v-2H4v2zm51 3v28h2V4h-2zm-3 31H4v2h48v-2zM1 32V4h-2v28h2zm3 3a3 3 0 01-3-3h-2a5 5 0 005 5v-2zm51-3a3 3 0 01-3 3v2a5 5 0 005-5h-2zM52 1a3 3 0 013 3h2a5 5 0 00-5-5v2zM4-1a5 5 0 00-5 5h2a3 3 0 013-3v-2z" fill="#000" fill-opacity=".1"/></svg>