<svg width="36" height="24" fill="none" xmlns="http://www.w3.org/2000/svg"><g clip-path="url(#payment_card_network_discover_branded_svg__payment_card_network_discover_branded_svg__clip0)"><path d="M0 2a2 2 0 012-2h32a2 2 0 012 2v20a2 2 0 01-2 2H2a2 2 0 01-2-2V2z" fill="#fff"/><path d="M16 24l20-6v6H16z" fill="#FD6020"/><path fill-rule="evenodd" clip-rule="evenodd" d="M30.607 8.996c1.094 0 1.695.506 1.695 1.461.055.73-.437 1.349-1.093 1.461l1.476 2.08h-1.148l-1.258-2.024h-.11v2.024h-.928V8.995h1.366zM30.17 11.3h.273c.602 0 .875-.281.875-.787 0-.45-.273-.73-.875-.73h-.273V11.3zm-4.154 2.697h2.624v-.842h-1.695v-1.35h1.64v-.842h-1.64V9.839h1.695v-.843h-2.624v5.002zm-2.733-1.63l-1.258-3.371h-.983l2.022 5.114h.492l2.023-5.114h-.984l-1.312 3.372zm-11.099-.842c0 1.405 1.094 2.585 2.46 2.585.438 0 .82-.112 1.203-.281v-1.124c-.273.337-.656.562-1.093.562-.875 0-1.586-.674-1.586-1.574v-.112A1.664 1.664 0 0114.7 9.839c.437 0 .875.225 1.148.562V9.277c-.328-.225-.765-.281-1.148-.281-1.421-.113-2.515 1.068-2.515 2.529zm-1.694-.618c-.547-.225-.71-.338-.71-.619.054-.337.327-.618.655-.562.273 0 .547.169.765.394l.493-.675c-.383-.337-.875-.562-1.367-.562-.766-.056-1.422.562-1.476 1.35v.055c0 .675.273 1.068 1.148 1.35.218.055.437.168.656.28a.594.594 0 01.273.506c0 .393-.328.73-.656.73h-.055a1.08 1.08 0 01-.984-.674l-.601.618c.328.618.984.956 1.64.956.875.056 1.585-.619 1.64-1.518v-.168c-.054-.675-.328-1.012-1.421-1.461zm-3.17 3.09h.929v-5h-.93v5.002zM3 8.995h1.64c1.312.056 2.35 1.18 2.296 2.53 0 .73-.328 1.404-.875 1.91-.492.393-1.093.618-1.694.562H3V8.994zm1.204 4.16c.437.057.93-.112 1.257-.393.328-.337.492-.787.492-1.292 0-.45-.164-.9-.492-1.237-.328-.28-.82-.45-1.257-.393H3.93v3.316h.274z" fill="#000"/><path fill-rule="evenodd" clip-rule="evenodd" d="M18.976 8.8c-1.4 0-2.576 1.151-2.576 2.648 0 1.44 1.12 2.648 2.576 2.706 1.456.057 2.576-1.152 2.632-2.648-.056-1.497-1.176-2.706-2.632-2.706z" fill="#FD6020"/></g><path d="M2 1h32v-2H2v2zm33 1v20h2V2h-2zm-1 21H2v2h32v-2zM1 22V2h-2v20h2zm1 1a1 1 0 01-1-1h-2a3 3 0 003 3v-2zm33-1a1 1 0 01-1 1v2a3 3 0 003-3h-2zM34 1a1 1 0 011 1h2a3 3 0 00-3-3v2zM2-1a3 3 0 00-3 3h2a1 1 0 011-1v-2z" fill="#000" fill-opacity=".1"/><defs><clipPath id="payment_card_network_discover_branded_svg__payment_card_network_discover_branded_svg__clip0"><path d="M0 2a2 2 0 012-2h32a2 2 0 012 2v20a2 2 0 01-2 2H2a2 2 0 01-2-2V2z" fill="#fff"/></clipPath></defs></svg>