<svg width="168" height="108" viewBox="0 0 168 108" fill="none" xmlns="http://www.w3.org/2000/svg">
<g clip-path="url(#clip0)">
<path d="M0 4C0 1.79086 1.79086 0 4 0H164C166.209 0 168 1.79086 168 4V104C168 106.209 166.209 108 164 108H4C1.79087 108 0 106.209 0 104V4Z" fill="#2F8635"/>
<path fill-rule="evenodd" clip-rule="evenodd" d="M0 0L36 108H4C1.79086 108 0 106.209 0 104L0 0Z" fill="#F9C205"/>
<path d="M145.5 12H136.5V22.5H126V31.5H136.5V42H145.5V31.5H156V22.5H145.5V12Z" fill="#FEFEFE" fill-opacity="0.6"/>
<path d="M42 82.5H63L66 87H42V82.5Z" fill="white" fill-opacity="0.6"/>
<path d="M42 91.5H99L102 96H42V91.5Z" fill="white" fill-opacity="0.6"/>
</g>
<defs>
<clipPath id="clip0">
<path d="M0 4C0 1.79086 1.79086 0 4 0H164C166.209 0 168 1.79086 168 4V104C168 106.209 166.209 108 164 108H4C1.79087 108 0 106.209 0 104V4Z" fill="white"/>
</clipPath>
</defs>
</svg>
