<svg width="112" height="72" viewBox="0 0 112 72" fill="none" xmlns="http://www.w3.org/2000/svg">
<g clip-path="url(#clip0)">
<path d="M0 4C0 1.79086 1.79086 0 4 0H108C110.209 0 112 1.79086 112 4V68C112 70.2091 110.209 72 108 72H4C1.79086 72 0 70.2091 0 68V4Z" fill="#2F8635"/>
<path fill-rule="evenodd" clip-rule="evenodd" d="M0 0L24 72H4C1.79086 72 0 70.2091 0 68L0 0Z" fill="#F9C205"/>
<path d="M97 8H91V15H84V21H91V28H97V21H104V15H97V8Z" fill="#FEFEFE" fill-opacity="0.6"/>
<path d="M28 55H42L44 58H28V55Z" fill="white" fill-opacity="0.6"/>
<path d="M28 61H66L68 64H28V61Z" fill="white" fill-opacity="0.6"/>
</g>
<defs>
<clipPath id="clip0">
<path d="M0 4C0 1.79086 1.79086 0 4 0H108C110.209 0 112 1.79086 112 4V68C112 70.2091 110.209 72 108 72H4C1.79086 72 0 70.2091 0 68V4Z" fill="white"/>
</clipPath>
</defs>
</svg>
