<svg width="56" height="36" viewBox="0 0 56 36" fill="none" xmlns="http://www.w3.org/2000/svg">
<path d="M0 4C0 1.79086 1.79086 0 4 0H52C54.2091 0 56 1.79086 56 4V32C56 34.2091 54.2091 36 52 36H4C1.79086 36 0 34.2091 0 32V4Z" fill="#E1E7BE"/>
<path d="M4 27.5H11L12 29H4V27.5Z" fill="#232464" fill-opacity="0.3"/>
<path d="M4 30.5H23L24 32H4V30.5Z" fill="#232464" fill-opacity="0.3"/>
<path d="M48.5 4H45.5V7.5H42V10.5H45.5V14H48.5V10.5H52V7.5H48.5V4Z" fill="#232464" fill-opacity="0.3"/>
<path d="M4 1H52V-1H4V1ZM55 4V32H57V4H55ZM52 35H4V37H52V35ZM1 32V4H-1V32H1ZM4 35C2.34315 35 1 33.6569 1 32H-1C-1 34.7614 1.23858 37 4 37V35ZM55 32C55 33.6569 53.6569 35 52 35V37C54.7614 37 57 34.7614 57 32H55ZM52 1C53.6569 1 55 2.34315 55 4H57C57 1.23858 54.7614 -1 52 -1V1ZM4 -1C1.23858 -1 -1 1.23858 -1 4H1C1 2.34315 2.34315 1 4 1V-1Z" fill="black" fill-opacity="0.1"/>
</svg>
