<svg width="168" height="108" viewBox="0 0 168 108" fill="none" xmlns="http://www.w3.org/2000/svg">
<path d="M0 4C0 1.79086 1.79086 0 4 0H164C166.209 0 168 1.79086 168 4V104C168 106.209 166.209 108 164 108H4C1.79087 108 0 106.209 0 104V4Z" fill="#E1E7BE"/>
<path d="M12 82.5H33L36 87H12V82.5Z" fill="#232464" fill-opacity="0.3"/>
<path d="M12 91.5H69L72 96H12V91.5Z" fill="#232464" fill-opacity="0.3"/>
<path d="M145.5 12H136.5V22.5H126V31.5H136.5V42H145.5V31.5H156V22.5H145.5V12Z" fill="#232464" fill-opacity="0.3"/>
<path d="M4 1H164V-1H4V1ZM167 4V104H169V4H167ZM164 107H4V109H164V107ZM1 104V4H-1V104H1ZM4 107C2.34315 107 1 105.657 1 104H-1C-1 106.761 1.23858 109 4 109V107ZM167 104C167 105.657 165.657 107 164 107V109C166.761 109 169 106.761 169 104H167ZM164 1C165.657 1 167 2.34315 167 4H169C169 1.23857 166.761 -1 164 -1V1ZM4 -1C1.23858 -1 -1 1.23857 -1 4H1C1 2.34314 2.34315 1 4 1V-1Z" fill="black" fill-opacity="0.1"/>
</svg>
