<svg width="112" height="72" viewBox="0 0 112 72" fill="none" xmlns="http://www.w3.org/2000/svg">
<path d="M0 4C0 1.79086 1.79086 0 4 0H108C110.209 0 112 1.79086 112 4V68C112 70.2091 110.209 72 108 72H4C1.79086 72 0 70.2091 0 68V4Z" fill="#DFEBE5"/>
<path d="M8 55H22L24 58H8V55Z" fill="#232464" fill-opacity="0.3"/>
<path d="M8 61H46L48 64H8V61Z" fill="#232464" fill-opacity="0.3"/>
<path d="M97 8H91V15H84V21H91V28H97V21H104V15H97V8Z" fill="#232464" fill-opacity="0.3"/>
<path d="M4 1H108V-1H4V1ZM111 4V68H113V4H111ZM108 71H4V73H108V71ZM1 68V4H-1V68H1ZM4 71C2.34314 71 1 69.6569 1 68H-1C-1 70.7614 1.23857 73 4 73V71ZM111 68C111 69.6569 109.657 71 108 71V73C110.761 73 113 70.7614 113 68H111ZM108 1C109.657 1 111 2.34315 111 4H113C113 1.23858 110.761 -1 108 -1V1ZM4 -1C1.23858 -1 -1 1.23858 -1 4H1C1 2.34315 2.34315 1 4 1V-1Z" fill="black" fill-opacity="0.1"/>
</svg>
