<svg width="168" height="108" viewBox="0 0 168 108" fill="none" xmlns="http://www.w3.org/2000/svg">
<path d="M0 4C0 1.79086 1.79086 0 4 0H164C166.209 0 168 1.79086 168 4V104C168 106.209 166.209 108 164 108H4C1.79087 108 0 106.209 0 104V4Z" fill="#FFD7D7"/>
<rect x="120" y="12" width="36" height="24" fill="#0C4DA2"/>
<path fill-rule="evenodd" clip-rule="evenodd" d="M137.98 14.0366L138.325 15.0723H139.443L138.538 15.7105L138.884 16.7462L137.98 16.1073L137.075 16.7473L137.42 15.7105L136.516 15.0723H137.634L137.98 14.0366ZM133.057 15.0767L133.403 16.1117H134.52L133.616 16.7517L133.961 17.7873L133.057 17.1474L132.154 17.7873L132.499 16.7517L131.594 16.1117H132.712L133.057 15.0767ZM142.961 15.1922L143.307 16.2273H144.424L143.52 16.8672L143.865 17.9028L142.961 17.2629L142.057 17.9028L142.403 16.8672L141.498 16.2273H142.616L142.961 15.1922ZM145.867 18.5428L146.213 19.579H147.33L146.426 20.2189L146.772 21.2546L145.868 20.6146L144.963 21.2535L145.309 20.2178L144.404 19.579H145.521L145.867 18.5428ZM130.151 18.4273L130.497 19.4629H131.614L130.71 20.1029L131.056 21.1385L130.151 20.498L129.247 21.1379L129.593 20.1023L128.689 19.4629H129.806L130.151 18.4273ZM128.965 22.7024L129.311 23.7375H130.428L129.524 24.378L129.87 25.4137L128.965 24.7737L128.061 25.4131L128.408 24.378L127.5 23.7375H128.62L128.965 22.7024ZM130.032 26.8041L130.378 27.8397H131.496L130.592 28.4796L130.937 29.5153L130.032 28.8753L129.128 29.5153L129.474 28.4796L128.57 27.8397H129.687L130.032 26.8041ZM133.353 29.8662L133.699 30.9019H134.816L133.913 31.5413L134.259 32.5769L133.355 31.9369L132.449 32.5769L132.795 31.5413L131.891 30.9013H133.008L133.353 29.8662ZM137.86 31.2528L138.206 32.2895H139.324L138.42 32.9278L138.766 33.9634L137.862 33.3235L136.957 33.9634L137.303 32.9278L136.398 32.2895H137.515L137.86 31.2528ZM142.249 30.037L142.597 31.0737H143.715L142.808 31.7147L143.153 32.7504L142.249 32.1104L141.345 32.7504L141.689 31.7147L140.787 31.0737H141.904L142.249 30.037ZM145.748 26.9174L146.093 27.953H147.212L146.307 28.5929L146.653 29.6286L145.748 28.9886L144.844 29.6286L145.189 28.5929L144.285 27.953H145.403L145.748 26.9174ZM146.993 22.8732L147.338 23.9089H148.456L147.553 24.5527L147.898 25.5883L146.994 24.9484L146.09 25.5883L146.435 24.5527L145.531 23.9127H146.649L146.993 22.8732Z" fill="#FFF200"/>
<path fill-rule="evenodd" clip-rule="evenodd" d="M17.051 92.3334H46.9491C46.7977 91.6552 46.5512 90.9308 46.1623 90.2177C44.9627 88.0186 41.7399 84.7501 32 84.7501C22.2602 84.7501 19.0374 88.0186 17.8378 90.2177C17.4489 90.9308 17.2024 91.6552 17.051 92.3334ZM50.5102 92.3334C50.529 92.452 50.5457 92.5687 50.5606 92.6834C50.7993 94.5209 50.5606 95.8334 50.5606 95.8334H13.4394C13.4394 95.8334 13.2008 94.5209 13.4394 92.6834C13.4543 92.5687 13.4711 92.452 13.4899 92.3334C14.1734 88.0187 17.5487 81.2501 32 81.2501C46.4514 81.2501 49.8267 88.0187 50.5102 92.3334Z" fill="#191919" fill-opacity="0.3"/>
<path fill-rule="evenodd" clip-rule="evenodd" d="M25 66.6667C25 70.5327 28.134 73.6668 32 73.6668C33.3032 73.6668 34.5231 73.3107 35.5679 72.6905L38.095 75.2177C36.3766 76.4448 34.2726 77.1668 32 77.1668C26.201 77.1668 21.5 72.4657 21.5 66.6667C21.5 60.8678 26.201 56.1667 32 56.1667C37.799 56.1667 42.5 60.8678 42.5 66.6668C42.5 68.75 41.8933 70.6916 40.847 72.3244L38.2817 69.7592C38.7416 68.8266 39 67.7769 39 66.6668C39 62.8008 35.866 59.6667 32 59.6667C28.134 59.6667 25 62.8008 25 66.6667Z" fill="#191919" fill-opacity="0.3"/>
<path d="M85.3 71H64V75H87.8555L85.3 71Z" fill="#191919" fill-opacity="0.3"/>
<path d="M121 80H64V84H123.6L121 80Z" fill="#191919" fill-opacity="0.3"/>
<path d="M64 89H121L123.6 93H64V89Z" fill="#191919" fill-opacity="0.3"/>
<path d="M4 1H164V-1H4V1ZM167 4V104H169V4H167ZM164 107H4V109H164V107ZM1 104V4H-1V104H1ZM4 107C2.34315 107 1 105.657 1 104H-1C-1 106.761 1.23858 109 4 109V107ZM167 104C167 105.657 165.657 107 164 107V109C166.761 109 169 106.761 169 104H167ZM164 1C165.657 1 167 2.34315 167 4H169C169 1.23857 166.761 -1 164 -1V1ZM4 -1C1.23858 -1 -1 1.23857 -1 4H1C1 2.34314 2.34315 1 4 1V-1Z" fill="black" fill-opacity="0.1"/>
</svg>
