<svg width="112" height="72" viewBox="0 0 112 72" fill="none" xmlns="http://www.w3.org/2000/svg">
<path d="M0 4C0 1.79086 1.79086 0 4 0H108C110.209 0 112 1.79086 112 4V68C112 70.2091 110.209 72 108 72H4C1.79086 72 0 70.2091 0 68V4Z" fill="#FFD7D7"/>
<rect x="80" y="8" width="24" height="16" fill="#0C4DA2"/>
<path fill-rule="evenodd" clip-rule="evenodd" d="M91.9864 9.35767L92.2168 10.0481H92.9618L92.3587 10.4736L92.5891 11.164L91.9864 10.7381L91.3836 11.1648L91.6137 10.4736L91.0109 10.0481H91.7559L91.9864 9.35767ZM88.7047 10.051L88.9351 10.7411H89.6802L89.0774 11.1677L89.3075 11.8581L88.7047 11.4315L88.1027 11.8581L88.3324 11.1677L87.7296 10.7411H88.4746L88.7047 10.051ZM95.3074 10.128L95.5378 10.8181H96.2829L95.6801 11.2447L95.9102 11.9351L95.3074 11.5085L94.7046 11.9351L94.9351 11.2447L94.3323 10.8181H95.0773L95.3074 10.128ZM97.2447 12.3618L97.4751 13.0526H98.2202L97.6174 13.4792L97.8478 14.1696L97.2451 13.743L96.6419 14.1689L96.8724 13.4785L96.2692 13.0526H97.0143L97.2447 12.3618ZM86.7674 12.2848L86.9978 12.9752H87.7429L87.1401 13.4018L87.3705 14.0922L86.7674 13.6652L86.1647 14.0919L86.3951 13.4015L85.7923 12.9752H86.5374L86.7674 12.2848ZM85.9766 15.1349L86.207 15.8249H86.9521L86.3493 16.2519L86.5797 16.9423L85.9766 16.5157L85.3738 16.942L85.6054 16.2519L85 15.8249H85.7465L85.9766 15.1349ZM86.6883 17.8693L86.9188 18.5597H87.6638L87.061 18.9864L87.2911 19.6768L86.6883 19.2501L86.0856 19.6768L86.316 18.9864L85.7132 18.5597H86.4583L86.6883 17.8693ZM88.9022 19.9107L89.1327 20.6011H89.8777L89.2757 21.0274L89.5061 21.7178L88.9034 21.2912L88.2995 21.7178L88.5299 21.0274L87.9271 20.6008H88.6722L88.9022 19.9107ZM91.9069 20.8351L92.1374 21.5262H92.8824L92.28 21.9518L92.5104 22.6422L91.9077 22.2156L91.3049 22.6422L91.5354 21.9518L90.9318 21.5262H91.6769L91.9069 20.8351ZM94.8325 20.0246L95.0649 20.7157H95.8099L95.2056 21.1431L95.4357 21.8335L94.8329 21.4069L94.2302 21.8335L94.4595 21.1431L93.8578 20.7157H94.6029L94.8325 20.0246ZM97.1652 17.9448L97.3953 18.6352H98.1411L97.5383 19.0619L97.7684 19.7523L97.1656 19.3257L96.5629 19.7523L96.7929 19.0619L96.1902 18.6352H96.9352L97.1652 17.9448ZM97.9954 15.2487L98.2255 15.9391H98.9705L98.3685 16.3684L98.5985 17.0588L97.9958 16.6321L97.393 17.0588L97.6235 16.3684L97.0207 15.9417H97.7657L97.9954 15.2487Z" fill="#FFF200"/>
<path d="M58.2 45H44V48H60L58.2 45Z" fill="#191919" fill-opacity="0.3"/>
<path d="M82 51H44V54H84L82 51Z" fill="#191919" fill-opacity="0.3"/>
<path d="M44 57H82L84 60H44V57Z" fill="#191919" fill-opacity="0.3"/>
<path fill-rule="evenodd" clip-rule="evenodd" d="M12.3899 60.5H31.6101C31.5128 60.064 31.3543 59.5983 31.1043 59.1399C30.3332 57.7262 28.2613 55.625 22 55.625C15.7387 55.625 13.6668 57.7262 12.8957 59.1399C12.6457 59.5983 12.4872 60.064 12.3899 60.5ZM33.8994 60.5C33.9115 60.5762 33.9222 60.6513 33.9318 60.725C34.0852 61.9062 33.9318 62.75 33.9318 62.75H10.0682C10.0682 62.75 9.91477 61.9062 10.0682 60.725C10.0778 60.6513 10.0885 60.5762 10.1006 60.5C10.54 57.7263 12.7099 53.375 22 53.375C31.2901 53.375 33.46 57.7263 33.8994 60.5Z" fill="#191919" fill-opacity="0.3"/>
<path fill-rule="evenodd" clip-rule="evenodd" d="M17.5 44C17.5 46.4853 19.5147 48.5 22 48.5C22.8377 48.5 23.622 48.2711 24.2936 47.8724L25.9182 49.497C24.8135 50.2859 23.4609 50.75 22 50.75C18.2721 50.75 15.25 47.7279 15.25 44C15.25 40.2721 18.2721 37.25 22 37.25C25.7279 37.25 28.75 40.2721 28.75 44C28.75 45.3393 28.36 46.5874 27.6873 47.6371L26.0382 45.988C26.3339 45.3885 26.5 44.7136 26.5 44C26.5 41.5147 24.4853 39.5 22 39.5C19.5147 39.5 17.5 41.5147 17.5 44Z" fill="#191919" fill-opacity="0.3"/>
<path d="M4 1H108V-1H4V1ZM111 4V68H113V4H111ZM108 71H4V73H108V71ZM1 68V4H-1V68H1ZM4 71C2.34314 71 1 69.6569 1 68H-1C-1 70.7614 1.23857 73 4 73V71ZM111 68C111 69.6569 109.657 71 108 71V73C110.761 73 113 70.7614 113 68H111ZM108 1C109.657 1 111 2.34315 111 4H113C113 1.23858 110.761 -1 108 -1V1ZM4 -1C1.23858 -1 -1 1.23858 -1 4H1C1 2.34315 2.34315 1 4 1V-1Z" fill="black" fill-opacity="0.1"/>
</svg>
