<svg width="112" height="72" viewBox="0 0 112 72" fill="none" xmlns="http://www.w3.org/2000/svg">
<path d="M0 4C0 1.79086 1.79086 0 4 0H108C110.209 0 112 1.79086 112 4V68C112 70.2091 110.209 72 108 72H4C1.79086 72 0 70.2091 0 68V4Z" fill="#FFD7D7"/>
<path d="M58.2 45H44V48H60L58.2 45Z" fill="#191919" fill-opacity="0.3"/>
<path d="M82 51H44V54H84L82 51Z" fill="#191919" fill-opacity="0.3"/>
<path d="M44 57H82L84 60H44V57Z" fill="#191919" fill-opacity="0.3"/>
<path fill-rule="evenodd" clip-rule="evenodd" d="M12.3899 60.5H31.6101C31.5128 60.064 31.3543 59.5983 31.1043 59.1399C30.3332 57.7262 28.2613 55.625 22 55.625C15.7387 55.625 13.6668 57.7262 12.8957 59.1399C12.6457 59.5983 12.4872 60.064 12.3899 60.5ZM33.8994 60.5C33.9115 60.5762 33.9222 60.6513 33.9318 60.725C34.0852 61.9062 33.9318 62.75 33.9318 62.75H10.0682C10.0682 62.75 9.91477 61.9062 10.0682 60.725C10.0778 60.6513 10.0885 60.5762 10.1006 60.5C10.54 57.7263 12.7099 53.375 22 53.375C31.2901 53.375 33.46 57.7263 33.8994 60.5Z" fill="#191919" fill-opacity="0.3"/>
<path fill-rule="evenodd" clip-rule="evenodd" d="M17.5 44C17.5 46.4853 19.5147 48.5 22 48.5C22.8377 48.5 23.622 48.2711 24.2936 47.8724L25.9182 49.497C24.8135 50.2859 23.4609 50.75 22 50.75C18.2721 50.75 15.25 47.7279 15.25 44C15.25 40.2721 18.2721 37.25 22 37.25C25.7279 37.25 28.75 40.2721 28.75 44C28.75 45.3393 28.36 46.5874 27.6873 47.6371L26.0382 45.988C26.3339 45.3885 26.5 44.7136 26.5 44C26.5 41.5147 24.4853 39.5 22 39.5C19.5147 39.5 17.5 41.5147 17.5 44Z" fill="#191919" fill-opacity="0.3"/>
<path d="M4 1H108V-1H4V1ZM111 4V68H113V4H111ZM108 71H4V73H108V71ZM1 68V4H-1V68H1ZM4 71C2.34314 71 1 69.6569 1 68H-1C-1 70.7614 1.23857 73 4 73V71ZM111 68C111 69.6569 109.657 71 108 71V73C110.761 73 113 70.7614 113 68H111ZM108 1C109.657 1 111 2.34315 111 4H113C113 1.23858 110.761 -1 108 -1V1ZM4 -1C1.23858 -1 -1 1.23858 -1 4H1C1 2.34315 2.34315 1 4 1V-1Z" fill="black" fill-opacity="0.1"/>
</svg>
