<svg width="168" height="108" viewBox="0 0 168 108" fill="none" xmlns="http://www.w3.org/2000/svg">
<path d="M0 4C0 1.79086 1.79086 0 4 0H164C166.209 0 168 1.79086 168 4V104C168 106.209 166.209 108 164 108H4C1.79087 108 0 106.209 0 104V4Z" fill="#FFD7D7"/>
<path d="M85.3 71H64V75H87.8555L85.3 71Z" fill="#191919" fill-opacity="0.3"/>
<path d="M121 80H64V84H123.6L121 80Z" fill="#191919" fill-opacity="0.3"/>
<path d="M64 89H121L123.6 93H64V89Z" fill="#191919" fill-opacity="0.3"/>
<path fill-rule="evenodd" clip-rule="evenodd" d="M17.051 92.3334H46.9491C46.7977 91.6552 46.5512 90.9308 46.1623 90.2177C44.9627 88.0186 41.7399 84.7501 32 84.7501C22.2602 84.7501 19.0374 88.0186 17.8378 90.2177C17.4489 90.9308 17.2024 91.6552 17.051 92.3334ZM50.5102 92.3334C50.529 92.452 50.5457 92.5687 50.5606 92.6834C50.7993 94.5209 50.5606 95.8334 50.5606 95.8334H13.4394C13.4394 95.8334 13.2008 94.5209 13.4394 92.6834C13.4543 92.5687 13.4711 92.452 13.4899 92.3334C14.1734 88.0187 17.5487 81.2501 32 81.2501C46.4514 81.2501 49.8267 88.0187 50.5102 92.3334Z" fill="#191919" fill-opacity="0.3"/>
<path fill-rule="evenodd" clip-rule="evenodd" d="M25 66.6667C25 70.5327 28.134 73.6668 32 73.6668C33.3032 73.6668 34.5231 73.3107 35.5679 72.6905L38.095 75.2177C36.3766 76.4448 34.2726 77.1668 32 77.1668C26.201 77.1668 21.5 72.4657 21.5 66.6667C21.5 60.8678 26.201 56.1667 32 56.1667C37.799 56.1667 42.5 60.8678 42.5 66.6668C42.5 68.75 41.8933 70.6916 40.847 72.3244L38.2817 69.7592C38.7416 68.8266 39 67.7769 39 66.6668C39 62.8008 35.866 59.6667 32 59.6667C28.134 59.6667 25 62.8008 25 66.6667Z" fill="#191919" fill-opacity="0.3"/>
<path d="M4 1H164V-1H4V1ZM167 4V104H169V4H167ZM164 107H4V109H164V107ZM1 104V4H-1V104H1ZM4 107C2.34315 107 1 105.657 1 104H-1C-1 106.761 1.23858 109 4 109V107ZM167 104C167 105.657 165.657 107 164 107V109C166.761 109 169 106.761 169 104H167ZM164 1C165.657 1 167 2.34315 167 4H169C169 1.23857 166.761 -1 164 -1V1ZM4 -1C1.23858 -1 -1 1.23857 -1 4H1C1 2.34314 2.34315 1 4 1V-1Z" fill="black" fill-opacity="0.1"/>
</svg>
