<svg width="56" height="36" viewBox="0 0 56 36" fill="none" xmlns="http://www.w3.org/2000/svg">
<path d="M0 4C0 1.79086 1.79086 0 4 0H52C54.2091 0 56 1.79086 56 4V32C56 34.2091 54.2091 36 52 36H4C1.79086 36 0 34.2091 0 32V4Z" fill="#E5F8FF"/>
<path d="M29.1 23H22V24.5H30L29.1 23Z" fill="#191919" fill-opacity="0.3"/>
<path d="M41 26H22V27.5H42L41 26Z" fill="#191919" fill-opacity="0.3"/>
<path d="M22 29H41L42 30.5H22V29Z" fill="#191919" fill-opacity="0.3"/>
<path fill-rule="evenodd" clip-rule="evenodd" d="M6.6611 29.8334H17.339C17.2849 29.5912 17.1969 29.3325 17.058 29.0778C16.6296 28.2924 15.4785 27.1251 12 27.1251C8.52153 27.1251 7.37051 28.2924 6.9421 29.0778C6.80319 29.3325 6.71517 29.5912 6.6611 29.8334ZM18.6108 29.8334C18.6175 29.8758 18.6235 29.9174 18.6288 29.9584C18.7141 30.6147 18.6288 31.0834 18.6288 31.0834H5.37125C5.37125 31.0834 5.28602 30.6147 5.37125 29.9584C5.37657 29.9174 5.38256 29.8758 5.38926 29.8334C5.63339 28.2925 6.83885 25.8751 12 25.8751C17.1612 25.8751 18.3667 28.2925 18.6108 29.8334Z" fill="#191919" fill-opacity="0.3"/>
<path fill-rule="evenodd" clip-rule="evenodd" d="M9.50004 20.6667C9.50004 22.0475 10.6193 23.1667 12 23.1667C12.4654 23.1667 12.9011 23.0396 13.2743 22.8181L14.1768 23.7206C13.5631 24.1589 12.8117 24.4167 12 24.4167C9.92897 24.4167 8.25004 22.7378 8.25004 20.6667C8.25004 18.5957 9.92897 16.9167 12 16.9167C14.0711 16.9167 15.75 18.5957 15.75 20.6667C15.75 21.4108 15.5334 22.1042 15.1596 22.6873L14.2435 21.7712C14.4077 21.4381 14.5 21.0632 14.5 20.6667C14.5 19.286 13.3807 18.1667 12 18.1667C10.6193 18.1667 9.50004 19.286 9.50004 20.6667Z" fill="#191919" fill-opacity="0.3"/>
<path d="M4 1H52V-1H4V1ZM55 4V32H57V4H55ZM52 35H4V37H52V35ZM1 32V4H-1V32H1ZM4 35C2.34315 35 1 33.6569 1 32H-1C-1 34.7614 1.23858 37 4 37V35ZM55 32C55 33.6569 53.6569 35 52 35V37C54.7614 37 57 34.7614 57 32H55ZM52 1C53.6569 1 55 2.34315 55 4H57C57 1.23858 54.7614 -1 52 -1V1ZM4 -1C1.23858 -1 -1 1.23858 -1 4H1C1 2.34315 2.34315 1 4 1V-1Z" fill="black" fill-opacity="0.1"/>
</svg>
