<svg width="168" height="108" viewBox="0 0 168 108" fill="none" xmlns="http://www.w3.org/2000/svg">
<path d="M0 4C0 1.79086 1.79086 0 4 0H164C166.209 0 168 1.79086 168 4V104C168 106.209 166.209 108 164 108H4C1.79087 108 0 106.209 0 104V4Z" fill="#740001"/>
<g opacity="0.7">
<path d="M59.9999 51.3333H78.6666V56.6666H59.9999V51.3333Z" fill="white"/>
<path d="M89.3332 51.3333H108V56.6666H89.3332V51.3333Z" fill="white"/>
<path fill-rule="evenodd" clip-rule="evenodd" d="M83.9999 56.6666C85.4727 56.6666 86.6666 55.4727 86.6666 53.9999C86.6666 52.5272 85.4727 51.3333 83.9999 51.3333C82.5271 51.3333 81.3332 52.5272 81.3332 53.9999C81.3332 55.4727 82.5271 56.6666 83.9999 56.6666ZM83.9999 62C88.4182 62 91.9999 58.4182 91.9999 53.9999C91.9999 49.5817 88.4182 45.9999 83.9999 45.9999C79.5816 45.9999 75.9999 49.5817 75.9999 53.9999C75.9999 58.4182 79.5816 62 83.9999 62Z" fill="white"/>
<path d="M62.6668 67.3328H97.3336L100.534 72.6661H57.3335V35.3328H110.667V72.6661H105.333V40.6661H62.6668V67.3328Z" fill="white"/>
</g>
</svg>
