<svg width="112" height="72" viewBox="0 0 112 72" fill="none" xmlns="http://www.w3.org/2000/svg">
<path d="M0 4C0 1.79086 1.79086 0 4 0H108C110.209 0 112 1.79086 112 4V68C112 70.2091 110.209 72 108 72H4C1.79086 72 0 70.2091 0 68V4Z" fill="#740001"/>
<g opacity="0.7">
<path d="M41 34.3333H52.6667V37.6667H41V34.3333Z" fill="white"/>
<path d="M59.3333 34.3333H71V37.6667H59.3333V34.3333Z" fill="white"/>
<path fill-rule="evenodd" clip-rule="evenodd" d="M56 37.6667C56.9205 37.6667 57.6667 36.9205 57.6667 36C57.6667 35.0795 56.9205 34.3333 56 34.3333C55.0795 34.3333 54.3333 35.0795 54.3333 36C54.3333 36.9205 55.0795 37.6667 56 37.6667ZM56 41C58.7614 41 61 38.7614 61 36C61 33.2386 58.7614 31 56 31C53.2386 31 51 33.2386 51 36C51 38.7614 53.2386 41 56 41Z" fill="white"/>
<path d="M42.6668 44.333H64.3336L66.3336 47.6663H39.3335V24.333H72.6668V47.6663H69.3335V27.6663H42.6668V44.333Z" fill="white"/>
</g>
</svg>
