<svg width="56" height="36" viewBox="0 0 56 36" fill="none" xmlns="http://www.w3.org/2000/svg">
<path d="M0 4C0 1.79086 1.79086 0 4 0H52C54.2091 0 56 1.79086 56 4V32C56 34.2091 54.2091 36 52 36H4C1.79086 36 0 34.2091 0 32V4Z" fill="#740001"/>
<g opacity="0.7">
<path d="M21.5 17H25.55L25.708 18.5H21.5V17Z" fill="white"/>
<path d="M30.45 17H34.5V18.5H30.292L30.45 17Z" fill="white"/>
<path fill-rule="evenodd" clip-rule="evenodd" d="M28 18.5C28.5523 18.5 29 18.0523 29 17.5C29 16.9477 28.5523 16.5 28 16.5C27.4477 16.5 27 16.9477 27 17.5C27 18.0523 27.4477 18.5 28 18.5ZM28 20C29.3807 20 30.5 18.8807 30.5 17.5C30.5 16.1193 29.3807 15 28 15C26.6193 15 25.5 16.1193 25.5 17.5C25.5 18.8807 26.6193 20 28 20Z" fill="white"/>
<path fill-rule="evenodd" clip-rule="evenodd" d="M21.5 22.5H32L33 24H20V12H36V24H34.5V13.5H21.5V22.5Z" fill="white"/>
</g>
</svg>
