<svg width="243" height="64" viewBox="0 0 243 64" fill="#0E353D" xmlns="http://www.w3.org/2000/svg">
  <path
    fillRule="evenodd"
    clipRule="evenodd"
    d="M109.677 41.2692C109.765 44.0779 110.696 46.2804 112.469 47.8768L112.464 47.8914C114.333 49.5657 116.915 50.4029 120.209 50.4029C121.989 50.4387 123.757 50.0917 125.392 49.3854C126.798 48.7743 127.996 47.7689 128.842 46.4909C129.679 45.1838 130.106 43.6568 130.07 42.1053C130.09 40.2926 129.656 38.7587 128.769 37.5034C127.882 36.2482 126.518 35.2638 124.676 34.5505L120.22 32.7962C118.891 32.2583 117.946 31.7281 117.384 31.2057C117.116 30.9684 116.901 30.6762 116.756 30.3488C116.61 30.0214 116.536 29.6666 116.539 29.3082C116.525 28.9396 116.596 28.5726 116.749 28.2366C116.901 27.9006 117.13 27.6047 117.416 27.3727C117.989 26.8991 118.775 26.6623 119.773 26.6623C120.976 26.6642 121.896 26.9966 122.533 27.6593C123.106 28.2538 123.423 29.0831 123.483 30.1473C123.488 30.2523 123.534 30.3512 123.61 30.4236C123.686 30.496 123.787 30.5363 123.892 30.5362H129.301C129.411 30.5301 129.515 30.4811 129.589 30.3996C129.664 30.3182 129.703 30.2108 129.699 30.1006C129.669 28.6068 129.212 27.1528 128.384 25.9097C127.555 24.6666 126.388 23.6861 125.021 23.0837C123.408 22.3525 121.652 21.9919 119.881 22.0282C118.15 21.9922 116.432 22.3261 114.841 23.0076C113.484 23.5835 112.324 24.5427 111.505 25.7676C110.714 26.995 110.307 28.4302 110.335 29.8901C110.289 31.4903 110.773 33.0608 111.712 34.3575C112.632 35.5991 113.987 36.5513 115.776 37.214L120.609 39.0939C121.835 39.5676 122.685 40.0548 123.159 40.5558C123.645 41.0946 123.9 41.8039 123.866 42.5293C123.89 42.9412 123.817 43.3529 123.654 43.7319C123.491 44.111 123.243 44.4469 122.928 44.7133C122.302 45.2259 121.414 45.4822 120.264 45.4822C118.909 45.4842 117.842 45.0739 117.063 44.2514C116.347 43.5087 115.957 42.501 115.893 41.2282C115.887 41.1235 115.842 41.025 115.766 40.9527C115.689 40.8805 115.589 40.8399 115.484 40.8394H110.078C109.968 40.8439 109.864 40.8916 109.789 40.9721C109.714 41.0525 109.674 41.1592 109.677 41.2692ZM62.466 22.9003C62.3887 22.9776 62.3453 23.0825 62.3453 23.1918V49.2158C62.3461 49.3249 62.3898 49.4293 62.4669 49.5065C62.544 49.5836 62.6485 49.6273 62.7576 49.6281H72.4731C75.2584 49.6281 77.687 49.0258 79.759 47.8212C81.7709 46.6779 83.4189 44.9894 84.5129 42.9503C85.5963 40.8691 86.162 38.5574 86.162 36.2111C86.162 33.8649 85.5963 31.5531 84.5129 29.472C83.4119 27.438 81.7656 25.7512 79.759 24.6011C77.6851 23.3867 75.2564 22.7796 72.4731 22.7796H62.7576C62.6482 22.7796 62.5434 22.823 62.466 22.9003ZM76.2008 43.2748C74.9019 44.0585 73.4047 44.4513 71.8883 44.4063L68.9646 44.4004C68.8553 44.4004 68.7504 44.357 68.6731 44.2797C68.5958 44.2024 68.5524 44.0975 68.5524 43.9882V28.399C68.5524 28.2896 68.5958 28.1848 68.6731 28.1075C68.7504 28.0301 68.8553 27.9867 68.9646 27.9867H71.8883C73.4047 27.9417 74.9019 28.3345 76.2008 29.1182C77.3632 29.843 78.2896 30.8904 78.8672 32.1325C79.4481 33.4086 79.7487 34.7944 79.7487 36.1965C79.7487 37.5986 79.4481 38.9844 78.8672 40.2605C78.2906 41.5033 77.364 42.5509 76.2008 43.2748ZM157.726 22.7767H163.108C163.218 22.7767 163.322 22.8201 163.4 22.8974C163.477 22.9747 163.52 23.0796 163.52 23.1889V43.6958C163.52 43.8052 163.564 43.91 163.641 43.9873C163.719 44.0647 163.823 44.1081 163.933 44.1081H173.081C173.19 44.1089 173.294 44.1526 173.371 44.2299C173.447 44.3071 173.49 44.4115 173.49 44.5203V49.2217C173.49 49.3302 173.447 49.4343 173.37 49.5111C173.294 49.5879 173.19 49.631 173.081 49.631H157.717C157.608 49.631 157.504 49.588 157.426 49.5113C157.349 49.4346 157.305 49.3305 157.305 49.2217V23.2006C157.305 23.1465 157.315 23.0929 157.336 23.0428C157.357 22.9928 157.387 22.9474 157.425 22.9091C157.464 22.8708 157.509 22.8404 157.559 22.8197C157.609 22.799 157.663 22.7883 157.717 22.7883L157.726 22.7767ZM208.063 22.7825H202.356C202.247 22.7825 202.143 22.8255 202.066 22.9022C201.988 22.9789 201.945 23.083 201.944 23.1918V49.2129C201.944 49.267 201.955 49.3206 201.975 49.3707C201.996 49.4207 202.026 49.4661 202.065 49.5044C202.103 49.5427 202.148 49.573 202.198 49.5938C202.248 49.6145 202.302 49.6251 202.356 49.6251H207.476C207.585 49.6251 207.69 49.5817 207.767 49.5044C207.844 49.4271 207.888 49.3222 207.888 49.2129V33.8926C207.888 33.8009 207.919 33.7119 207.975 33.6396C208.031 33.5673 208.11 33.5158 208.199 33.4933C208.288 33.4708 208.382 33.4786 208.466 33.5155C208.55 33.5523 208.619 33.6161 208.663 33.6967L217.089 49.4059C217.124 49.4714 217.177 49.5263 217.24 49.5648C217.304 49.6034 217.377 49.6242 217.451 49.6251H223.158C223.268 49.6251 223.373 49.5817 223.45 49.5044C223.527 49.4271 223.571 49.3222 223.571 49.2129V23.1918C223.571 23.1378 223.56 23.0844 223.539 23.0345C223.519 22.9846 223.488 22.9394 223.45 22.9014C223.411 22.8633 223.366 22.8332 223.316 22.8128C223.266 22.7924 223.212 22.7821 223.158 22.7825H218.039C217.93 22.7825 217.826 22.8255 217.749 22.9022C217.671 22.9789 217.628 23.083 217.627 23.1918V38.5121C217.627 38.6038 217.596 38.6928 217.54 38.7652C217.483 38.8375 217.404 38.8889 217.316 38.9114C217.227 38.9339 217.133 38.9261 217.049 38.8892C216.965 38.8524 216.896 38.7886 216.852 38.708L208.426 22.9989C208.391 22.9333 208.339 22.8785 208.275 22.8403C208.211 22.8022 208.138 22.7822 208.063 22.7825ZM226.679 22.7825H242.265C242.319 22.7821 242.372 22.7924 242.422 22.8128C242.472 22.8332 242.518 22.8633 242.556 22.9014C242.595 22.9394 242.625 22.9847 242.646 23.0345C242.667 23.0844 242.677 23.1378 242.677 23.1918V27.3552C242.676 27.464 242.633 27.5681 242.555 27.6448C242.478 27.7215 242.374 27.7645 242.265 27.7645H232.889C232.779 27.7645 232.674 27.8079 232.597 27.8853C232.52 27.9626 232.476 28.0674 232.476 28.1768V33.4394C232.477 33.5483 232.521 33.6524 232.598 33.7291C232.675 33.8057 232.78 33.8488 232.889 33.8488H242.265C242.374 33.8488 242.479 33.8922 242.556 33.9695C242.634 34.0468 242.677 34.1517 242.677 34.261V38.3074C242.677 38.4168 242.634 38.5216 242.556 38.5989C242.479 38.6762 242.374 38.7197 242.265 38.7197H232.889C232.779 38.7197 232.674 38.7631 232.597 38.8404C232.52 38.9177 232.476 39.0226 232.476 39.1319V44.2133C232.476 44.3227 232.52 44.4275 232.597 44.5048C232.674 44.5822 232.779 44.6256 232.889 44.6256H242.265C242.374 44.6256 242.478 44.6686 242.555 44.7453C242.633 44.822 242.676 44.9261 242.677 45.0349V49.1983C242.677 49.3076 242.634 49.4125 242.556 49.4898C242.479 49.5671 242.374 49.6105 242.265 49.6105H226.679C226.569 49.6105 226.464 49.5671 226.387 49.4898C226.31 49.4125 226.266 49.3076 226.266 49.1983V23.1772C226.266 23.0687 226.309 22.9645 226.386 22.8878C226.463 22.811 226.567 22.7679 226.676 22.7679L226.679 22.7825ZM100.392 22.9813L109.312 49.2187V49.2129C109.318 49.2448 109.318 49.2775 109.312 49.3094C109.312 49.3869 109.281 49.4613 109.226 49.5161C109.171 49.5709 109.097 49.6017 109.02 49.6017H103.19C103.101 49.6028 103.014 49.5747 102.943 49.5219C102.872 49.4692 102.82 49.3945 102.795 49.3094L101.672 45.3331H92.7373L91.6146 49.3094C91.5893 49.3942 91.5372 49.4686 91.466 49.5213C91.3948 49.5741 91.3085 49.6023 91.2199 49.6017H85.3959C85.3629 49.6062 85.3295 49.6062 85.2965 49.6017C85.258 49.5903 85.2224 49.571 85.1917 49.5452C85.1611 49.5193 85.136 49.4875 85.1182 49.4515C85.1004 49.4156 85.0901 49.3764 85.0881 49.3364C85.0861 49.2963 85.0923 49.2563 85.1064 49.2187L93.9916 22.9813C94.0109 22.9197 94.0501 22.8662 94.1029 22.8292C94.1558 22.7922 94.2195 22.7737 94.284 22.7767H100.099C100.164 22.7737 100.227 22.7922 100.28 22.8292C100.333 22.8662 100.372 22.9197 100.392 22.9813ZM96.9241 30.5917L94.2723 39.9652L94.2518 39.9506C94.2473 39.9865 94.2473 40.0228 94.2518 40.0587C94.2518 40.1642 94.2937 40.2653 94.3683 40.3399C94.4428 40.4145 94.544 40.4564 94.6494 40.4564H99.7776C99.8135 40.462 99.85 40.462 99.8858 40.4564C99.9361 40.4422 99.9832 40.4182 100.024 40.3859C100.065 40.3535 100.1 40.3134 100.125 40.2678C100.151 40.2221 100.167 40.1719 100.173 40.12C100.179 40.0681 100.175 40.0155 100.161 39.9652L97.5088 30.5917C97.5088 30.5142 97.478 30.4398 97.4232 30.385C97.3684 30.3302 97.294 30.2994 97.2165 30.2994C97.1389 30.2994 97.0646 30.3302 97.0097 30.385C96.9549 30.4398 96.9241 30.5142 96.9241 30.5917ZM199.552 49.2187L190.635 22.9813C190.616 22.9197 190.577 22.8662 190.524 22.8292C190.471 22.7922 190.407 22.7737 190.343 22.7767H184.524C184.46 22.7737 184.396 22.7922 184.343 22.8292C184.291 22.8662 184.251 22.9197 184.232 22.9813L175.35 49.2187C175.336 49.2563 175.33 49.2963 175.332 49.3364C175.334 49.3764 175.344 49.4156 175.362 49.4515C175.379 49.4875 175.404 49.5193 175.435 49.5452C175.466 49.571 175.501 49.5903 175.54 49.6017C175.572 49.606 175.604 49.606 175.636 49.6017H181.46C181.549 49.6028 181.636 49.5747 181.707 49.5219C181.778 49.4692 181.83 49.3945 181.855 49.3094L182.981 45.3331H191.913L193.038 49.3094C193.063 49.3945 193.115 49.4692 193.187 49.5219C193.258 49.5747 193.344 49.6028 193.433 49.6017H199.257C199.335 49.6017 199.409 49.5709 199.464 49.5161C199.519 49.4613 199.549 49.3869 199.549 49.3094C199.554 49.2773 199.554 49.2449 199.549 49.2129L199.552 49.2187ZM184.51 39.9593L187.162 30.5859C187.171 30.5469 187.189 30.5104 187.213 30.4785C187.238 30.4466 187.269 30.4201 187.304 30.4007C187.339 30.3812 187.377 30.3692 187.417 30.3653C187.457 30.3615 187.498 30.3659 187.536 30.3783C187.585 30.3928 187.63 30.4194 187.666 30.4557C187.702 30.492 187.729 30.5367 187.743 30.5859L190.395 39.9593C190.424 40.0613 190.411 40.1705 190.36 40.2631C190.308 40.3558 190.222 40.4242 190.12 40.4534C190.085 40.4626 190.049 40.4675 190.012 40.4681H184.893C184.787 40.4673 184.686 40.4252 184.611 40.3509C184.537 40.2766 184.494 40.1759 184.492 40.0704C184.492 40.0327 184.498 39.9952 184.51 39.9593ZM148.68 22.7825H154.068V22.7796C154.177 22.7796 154.281 22.8226 154.359 22.8993C154.436 22.976 154.48 23.0801 154.48 23.1889V49.21C154.48 49.3193 154.437 49.4242 154.36 49.5015C154.282 49.5788 154.177 49.6222 154.068 49.6222H148.68C148.57 49.6222 148.466 49.5788 148.388 49.5015C148.311 49.4242 148.267 49.3193 148.267 49.21V39.3746C148.267 39.2652 148.224 39.1604 148.147 39.0831C148.069 39.0058 147.965 38.9623 147.855 38.9623H139.403C139.293 38.9623 139.189 39.0058 139.111 39.0831C139.034 39.1604 138.991 39.2652 138.991 39.3746V49.21C138.99 49.3188 138.946 49.4229 138.869 49.4996C138.792 49.5763 138.687 49.6193 138.578 49.6193H133.19C133.081 49.6193 132.977 49.5763 132.899 49.4996C132.822 49.4229 132.778 49.3188 132.778 49.21V23.1889C132.778 23.0796 132.821 22.9747 132.898 22.8974C132.976 22.8201 133.081 22.7767 133.19 22.7767H138.578C138.686 22.7774 138.79 22.8203 138.867 22.8962C138.944 22.9721 138.988 23.075 138.991 23.1831V33.2202C138.991 33.3295 139.034 33.4344 139.111 33.5117C139.189 33.589 139.293 33.6324 139.403 33.6324H147.855C147.909 33.6324 147.963 33.6217 148.013 33.601C148.063 33.5803 148.108 33.5499 148.147 33.5117C148.185 33.4734 148.215 33.4279 148.236 33.3779C148.257 33.3279 148.267 33.2743 148.267 33.2202V23.1918C148.268 23.083 148.312 22.9789 148.389 22.9022C148.466 22.8255 148.571 22.7825 148.68 22.7825Z"
  />
  <path
    fillRule="evenodd"
    clipRule="evenodd"
    d="M47.4132 20.5837C47.4132 20.1869 47.0164 19.7901 46.4597 19.6314L39.788 17.1724C38.6769 16.6963 37.4061 17.2518 37.4061 18.0465V45.9999C37.4061 46.3967 37.8029 46.8728 38.1997 47.0316L45.0302 49.4906C46.0629 49.8874 47.4132 49.3319 47.4132 48.4578V20.5837ZM34.9437 10.8159C34.9437 10.4179 34.5469 10.0211 33.9903 9.86243L27.3197 7.40342C26.2075 6.92726 24.9367 7.48278 24.9367 8.27748V25.2704C24.9367 25.6672 25.3334 26.1433 25.7302 26.3032L32.5607 28.7622C33.5935 29.1601 34.9437 28.6035 34.9437 27.7305V10.8159ZM34.9437 41.3926C34.9437 40.9958 34.5469 40.599 33.9903 40.4403L27.3197 37.9813C26.2075 37.5051 24.9367 38.0606 24.9367 38.8553V55.8482C24.9367 56.245 25.3334 56.7212 25.7302 56.8799L32.5607 59.3389C33.5935 59.7368 34.9437 59.1802 34.9437 58.3061V41.3926ZM22.4743 44.8084C22.4743 44.4116 22.0775 44.0137 21.5209 43.855L14.8502 41.3959C13.7325 40.9198 12.4672 41.4753 12.4672 42.27V60.3773C12.4672 60.7741 12.864 61.2514 13.2608 61.4101L20.0913 63.8691C21.1241 64.267 22.4743 63.7104 22.4743 62.8374V44.8084ZM22.4743 3.58747C22.4743 3.19068 22.0775 2.79388 21.5209 2.63516L14.8502 0.176148C13.7325 -0.300007 12.4672 0.255506 12.4672 1.05022V19.1575C12.4672 19.5554 12.864 20.0316 13.2608 20.1903L20.0913 22.6493C21.1241 23.0461 22.4743 22.4906 22.4743 21.6165V3.58747ZM10.0071 4.30282C10.0071 3.90603 9.61028 3.50811 9.05365 3.3494L2.38301 0.89038C1.27086 0.414225 0 0.96974 0 1.76445V59.7402C0 60.137 0.396801 60.6131 0.794714 60.7719L7.62407 63.2309C8.65685 63.6277 10.0071 63.0722 10.0071 62.1981V4.30282Z"
  />
</svg>
