<svg width="20" height="20" viewBox="0 0 20 20" fill="none" xmlns="http://www.w3.org/2000/svg">
<path fill-rule="evenodd" clip-rule="evenodd" d="M8.36503 4.55652H17.52L18 5.99652V6.00423H8.36495C8.07488 6.75095 7.34925 7.28027 6.5 7.28027C5.65075 7.28027 4.92512 6.75095 4.63505 6.00423H2.48257L2 4.55652H4.63497C4.92499 3.80969 5.65067 3.28027 6.5 3.28027C7.34933 3.28027 8.07501 3.80969 8.36503 4.55652ZM17.52 9.56423H15.368C15.08 8.81333 14.3522 8.28027 13.5 8.28027C12.6478 8.28027 11.92 8.81333 11.632 9.56423H2L2.48257 11.0119H11.6381C11.9301 11.7546 12.6537 12.2803 13.5 12.2803C14.3463 12.2803 15.0699 11.7546 15.3619 11.0119H18V11.0042L17.52 9.56423ZM8.36503 14.5565H17.52L18 16.0042H8.36495C8.07488 16.751 7.34925 17.2803 6.5 17.2803C5.65075 17.2803 4.92512 16.751 4.63505 16.0042H2.48257L2 14.5565H4.63497C4.925 13.8097 5.65067 13.2803 6.5 13.2803C7.34933 13.2803 8.075 13.8097 8.36503 14.5565ZM6.50001 5.83047C6.80377 5.83047 7.05001 5.58423 7.05001 5.28047C7.05001 4.97671 6.80377 4.73047 6.50001 4.73047C6.19626 4.73047 5.95001 4.97671 5.95001 5.28047C5.95001 5.58423 6.19626 5.83047 6.50001 5.83047ZM13.5 10.8305C13.8038 10.8305 14.05 10.5842 14.05 10.2805C14.05 9.97671 13.8038 9.73047 13.5 9.73047C13.1963 9.73047 12.95 9.97671 12.95 10.2805C12.95 10.5842 13.1963 10.8305 13.5 10.8305ZM7.05001 15.2805C7.05001 15.5842 6.80377 15.8305 6.50001 15.8305C6.19626 15.8305 5.95001 15.5842 5.95001 15.2805C5.95001 14.9767 6.19626 14.7305 6.50001 14.7305C6.80377 14.7305 7.05001 14.9767 7.05001 15.2805Z" fill="#0E353D"/>
</svg>
