<svg width="20" height="20" viewBox="0 0 20 20" fill="none" xmlns="http://www.w3.org/2000/svg">
<path d="M3.6151 5.56682L10 3.57154L16.3849 5.56682C16.3217 6.10325 16.231 6.77936 16.1069 7.51049C15.8021 9.30674 15.3345 11.1806 14.7096 12.2353C14.389 12.7762 13.8846 13.3366 13.2921 13.8778L14.3538 14.9394C15.0094 14.3344 15.5993 13.6762 16 13C17.5621 10.364 18 4.5 18 4.5L10 2L2 4.5C2 4.5 2.4379 10.364 4 13C5.5621 15.636 10 18 10 18C10 18 11.3348 17.289 12.7979 16.2121L11.7242 15.1383C11.666 15.1802 11.6078 15.2217 11.5495 15.2628C10.9603 15.6786 10.4113 16.0242 10 16.2709C9.58869 16.0242 9.03974 15.6786 8.4505 15.2628C7.17126 14.3603 5.8992 13.2626 5.29044 12.2353C4.66546 11.1806 4.19793 9.30674 3.89306 7.51049C3.76897 6.77936 3.67832 6.10325 3.6151 5.56682Z" fill="#3E5D64" />
<path fillRule="evenodd" clipRule="evenodd" d="M9.49997 8.5H8.75V7H11V11H9.49997V8.5Z" fill="#3E5D64" />
</svg>
